<svg width="40" height="40" viewBox="0 0 40 40" fill="none" xmlns="http://www.w3.org/2000/svg">
<g clip-path="url(#clip0)">
<path d="M39.0636 25.5346C38.1121 23.5103 36.5606 22.2145 34.6949 21.8857C34.3976 21.8334 34.0939 21.8068 33.7919 21.8068C32.8205 21.8068 31.8566 22.076 30.9535 22.5866V21.4711C30.9535 20.616 31.6491 19.9204 32.5042 19.9204H33.1703V17.5768H32.5042C30.3569 17.5768 28.6098 19.3237 28.6098 21.4711V22.5866C28.0023 22.2431 27.3671 22.0103 26.7206 21.8939V2.53425H21.5539V0H5.1763V2.53425H0.00952148V39.9999L26.8904 39.9934C26.9745 39.9974 27.0585 40 27.1426 40C27.4447 40 27.7486 39.9734 28.0459 39.9211C28.6589 39.8131 29.2399 39.5995 29.7818 39.2837C30.3237 39.5995 30.9048 39.8131 31.5178 39.9211C31.8149 39.9734 32.1187 40 32.4209 40H32.4215C34.1285 40 35.8239 39.1632 37.1957 37.6436C38.4976 36.2013 39.4227 34.2264 39.8003 32.0827C40.2117 29.7464 39.9501 27.4209 39.0636 25.5346ZM7.51994 2.34364H19.2104V5.06842H7.51994V2.34364ZM2.35316 4.87789H5.1763V7.41206H21.554V4.87789H24.3772V21.997C22.7309 22.4518 21.3664 23.6909 20.4999 25.5346C20.4823 25.5722 20.4664 25.611 20.4493 25.6489H10.483V27.9925H19.7391C19.5958 28.8181 19.5458 29.6819 19.5915 30.5612H10.483V32.9049H19.9373C20.3869 34.7279 21.2343 36.3874 22.368 37.6432C22.3702 37.6457 22.3726 37.6482 22.3748 37.6507L2.35308 37.6557V4.87789H2.35316ZM37.4921 31.676C36.9012 35.0297 34.6738 37.6566 32.421 37.6564C32.2547 37.6564 32.0876 37.6418 31.9244 37.613C31.4217 37.5244 30.9504 37.3025 30.5238 36.9534L29.7817 36.3463L29.0397 36.9534C28.613 37.3026 28.1418 37.5244 27.6392 37.613C27.4758 37.6418 27.3088 37.6564 27.1426 37.6564C24.8897 37.6564 22.6621 35.0295 22.0714 31.676C21.743 29.8114 21.9381 27.9843 22.6209 26.5315C23.2389 25.2167 24.1816 24.3865 25.2753 24.1938C26.4945 23.9791 27.8086 24.5808 28.8964 25.8357L29.7818 26.8572L30.6672 25.8358C31.7552 24.5809 33.0694 23.9791 34.2884 24.1938C35.3821 24.3865 36.3247 25.2167 36.9427 26.5315C37.6254 27.9844 37.8206 29.8114 37.4921 31.676Z" fill="#B7B7B7"/>
<path d="M5.57068 10.9119H8.02681V13.2555H5.57068V10.9119Z" fill="#B7B7B7"/>
<path d="M5.57068 15.8242H8.02681V18.1679H5.57068V15.8242Z" fill="#B7B7B7"/>
<path d="M5.57068 20.7366H8.02681V23.0802H5.57068V20.7366Z" fill="#B7B7B7"/>
<path d="M5.57068 25.6492H8.02681V27.9928H5.57068V25.6492Z" fill="#B7B7B7"/>
<path d="M5.57068 30.5615H8.02681V32.9052H5.57068V30.5615Z" fill="#B7B7B7"/>
<path d="M10.4832 10.9119H21.16V13.2555H10.4832V10.9119Z" fill="#B7B7B7"/>
<path d="M10.4832 15.8242H21.16V18.1679H10.4832V15.8242Z" fill="#B7B7B7"/>
<path d="M10.4832 20.7366H21.16V23.0802H10.4832V20.7366Z" fill="#B7B7B7"/>
</g>
<defs>
<clipPath id="clip0">
<rect width="40" height="40" fill="white"/>
</clipPath>
</defs>
</svg>
