<svg width="86" height="86" viewBox="0 0 86 86" fill="none" xmlns="http://www.w3.org/2000/svg">
<g filter="url(#filter0_d)">
<circle cx="43" cy="36" r="19.5" transform="rotate(-180 43 36)" stroke="#4C9162"/>
<g clip-path="url(#clip0)">
<path d="M39.3793 29.1708C39.1512 29.3989 39.1512 29.7676 39.3793 29.9956L45.3834 35.9998L39.3793 42.0039C39.1512 42.232 39.1512 42.6006 39.3793 42.8287C39.6074 43.0568 39.976 43.0568 40.2041 42.8287L46.6207 36.4122C46.7344 36.2984 46.7916 36.1491 46.7916 35.9997C46.7916 35.8504 46.7344 35.7011 46.6207 35.5873L40.2041 29.1708C39.976 28.9427 39.6074 28.9427 39.3793 29.1708Z" fill="#4C9162"/>
</g>
</g>
<defs>
<filter id="filter0_d" x="0" y="0" width="86" height="86" filterUnits="userSpaceOnUse" color-interpolation-filters="sRGB">
<feFlood flood-opacity="0" result="BackgroundImageFix"/>
<feColorMatrix in="SourceAlpha" type="matrix" values="0 0 0 0 0 0 0 0 0 0 0 0 0 0 0 0 0 0 127 0"/>
<feOffset dy="7"/>
<feGaussianBlur stdDeviation="11.5"/>
<feColorMatrix type="matrix" values="0 0 0 0 0.302344 0 0 0 0 0.5625 0 0 0 0 0.385292 0 0 0 0.28 0"/>
<feBlend mode="normal" in2="BackgroundImageFix" result="effect1_dropShadow"/>
<feBlend mode="normal" in="SourceGraphic" in2="effect1_dropShadow" result="shape"/>
</filter>
<clipPath id="clip0">
<rect width="14" height="14" fill="white" transform="translate(36 43) rotate(-90)"/>
</clipPath>
</defs>
</svg>
