<svg width="64" height="64" viewBox="0 0 64 64" fill="none" xmlns="http://www.w3.org/2000/svg">
<g filter="url(#filter0_d)">
<circle cx="32" cy="28" r="22" fill="#FFC702"/>
</g>
<g clip-path="url(#clip0)" filter="url(#filter1_d)">
<path d="M41.2347 31.4405C39.8878 31.4405 38.5653 31.2298 37.312 30.8157C36.6979 30.6062 35.943 30.7984 35.5682 31.1833L33.0945 33.0507C30.2257 31.5193 28.4586 29.7528 26.9482 26.9056L28.7606 24.4963C29.2315 24.0261 29.4004 23.3392 29.198 22.6946C28.7821 21.4348 28.5708 20.1129 28.5708 18.7654C28.5709 17.7919 27.7789 17 26.8055 17H22.7653C21.7919 17 21 17.7919 21 18.7653C21 29.9229 30.0772 39 41.2347 39C42.2081 39 43.0001 38.2081 43.0001 37.2347V33.2058C43 32.2324 42.2081 31.4405 41.2347 31.4405Z" fill="white"/>
</g>
<defs>
<filter id="filter0_d" x="0" y="0" width="64" height="64" filterUnits="userSpaceOnUse" color-interpolation-filters="sRGB">
<feFlood flood-opacity="0" result="BackgroundImageFix"/>
<feColorMatrix in="SourceAlpha" type="matrix" values="0 0 0 0 0 0 0 0 0 0 0 0 0 0 0 0 0 0 127 0"/>
<feOffset dy="4"/>
<feGaussianBlur stdDeviation="5"/>
<feColorMatrix type="matrix" values="0 0 0 0 0 0 0 0 0 0 0 0 0 0 0 0 0 0 0.18 0"/>
<feBlend mode="normal" in2="BackgroundImageFix" result="effect1_dropShadow"/>
<feBlend mode="normal" in="SourceGraphic" in2="effect1_dropShadow" result="shape"/>
</filter>
<filter id="filter1_d" x="15" y="15" width="34" height="34" filterUnits="userSpaceOnUse" color-interpolation-filters="sRGB">
<feFlood flood-opacity="0" result="BackgroundImageFix"/>
<feColorMatrix in="SourceAlpha" type="matrix" values="0 0 0 0 0 0 0 0 0 0 0 0 0 0 0 0 0 0 127 0"/>
<feOffset dy="4"/>
<feGaussianBlur stdDeviation="3"/>
<feColorMatrix type="matrix" values="0 0 0 0 0 0 0 0 0 0 0 0 0 0 0 0 0 0 0.19 0"/>
<feBlend mode="normal" in2="BackgroundImageFix" result="effect1_dropShadow"/>
<feBlend mode="normal" in="SourceGraphic" in2="effect1_dropShadow" result="shape"/>
</filter>
<clipPath id="clip0">
<rect width="22" height="22" fill="white" transform="translate(21 17)"/>
</clipPath>
</defs>
</svg>
