<svg width="99" height="46" viewBox="0 0 99 46" fill="none" xmlns="http://www.w3.org/2000/svg">
<path d="M0 34H8V46L0 34Z" fill="#356544"/>
<rect width="99" height="38" rx="5" fill="#4C9162"/>
<path d="M20.761 26V11.8H32.261V26H29.681V14.02H23.341V26H20.761ZM36.1276 24.74C35.0476 23.7267 34.5076 22.4467 34.5076 20.9C34.5076 19.3533 35.0476 18.08 36.1276 17.08C37.2076 16.0667 38.5276 15.56 40.0876 15.56C41.6609 15.56 42.9876 16.0667 44.0676 17.08C45.1609 18.08 45.7076 19.3533 45.7076 20.9C45.7076 22.4467 45.1676 23.7267 44.0876 24.74C43.0076 25.74 41.6809 26.24 40.1076 26.24C38.5342 26.24 37.2076 25.74 36.1276 24.74ZM37.0876 20.9C37.0876 21.8333 37.3742 22.6 37.9476 23.2C38.5342 23.7867 39.2542 24.08 40.1076 24.08C40.9609 24.08 41.6809 23.7867 42.2676 23.2C42.8542 22.6 43.1476 21.8333 43.1476 20.9C43.1476 19.98 42.8476 19.22 42.2476 18.62C41.6609 18.02 40.9476 17.72 40.1076 17.72C39.2676 17.72 38.5542 18.02 37.9676 18.62C37.3809 19.22 37.0876 19.98 37.0876 20.9ZM47.1834 20.9C47.1834 19.4067 47.69 18.1467 48.7034 17.12C49.73 16.08 51.07 15.56 52.7234 15.56C53.4567 15.56 54.1767 15.6867 54.8834 15.94C55.59 16.1933 56.1767 16.5733 56.6434 17.08L55.5034 18.82C54.77 18.0867 53.89 17.72 52.8634 17.72C51.9434 17.72 51.1967 18.0267 50.6234 18.64C50.05 19.24 49.7634 19.9867 49.7634 20.88C49.7634 21.7733 50.0567 22.5333 50.6434 23.16C51.23 23.7733 51.9967 24.08 52.9434 24.08C54.05 24.08 55.05 23.6467 55.9434 22.78L56.9234 24.58C56.4434 25.0867 55.8234 25.4933 55.0634 25.8C54.3167 26.0933 53.5367 26.24 52.7234 26.24C51.07 26.24 49.73 25.7333 48.7034 24.72C47.69 23.6933 47.1834 22.42 47.1834 20.9ZM57.8004 26.1V23.86C58.4937 23.7667 59.0204 23.36 59.3804 22.64C59.7537 21.9067 59.9404 20.6933 59.9404 19V15.8H67.3804V26H64.8404V17.86H62.3604V19C62.3604 21.32 62.0071 23.0733 61.3004 24.26C60.5937 25.4333 59.4271 26.0467 57.8004 26.1ZM69.488 20.9C69.488 19.3267 69.968 18.0467 70.928 17.06C71.9014 16.06 73.1547 15.56 74.688 15.56C76.1014 15.56 77.208 16.02 78.008 16.94C78.808 17.8467 79.208 19 79.208 20.4C79.208 20.6267 79.1814 20.9533 79.128 21.38H72.108C72.188 22.2333 72.5147 22.9 73.088 23.38C73.6614 23.8467 74.3547 24.08 75.168 24.08C76.1814 24.08 77.1547 23.7067 78.088 22.96L79.088 24.78C78.5814 25.2333 77.9547 25.5933 77.208 25.86C76.4747 26.1133 75.7347 26.24 74.988 26.24C73.348 26.24 72.0214 25.7267 71.008 24.7C69.9947 23.66 69.488 22.3933 69.488 20.9ZM72.168 19.64H76.668C76.6547 18.9733 76.4547 18.4467 76.068 18.06C75.6947 17.6733 75.2147 17.48 74.628 17.48C73.988 17.48 73.448 17.68 73.008 18.08C72.568 18.4667 72.288 18.9867 72.168 19.64Z" fill="white"/>
</svg>
