<svg width="40" height="32" viewBox="0 0 40 32" fill="none" xmlns="http://www.w3.org/2000/svg">
<path d="M1.87388 26.094C1.87388 26.094 5.46779 26.5313 6.67255 26.5298C7.78131 26.5298 9.43043 26.5763 11.9725 24.67C11.9725 24.67 12.3455 26.8105 14.4894 28.3152C14.4894 28.3152 15.1929 29.6709 15.9969 31.0858H29.9891C30.0024 29.981 29.9372 28.8326 29.7512 27.6632C29.7512 27.6632 32.7889 21.8911 31.0349 18.1596C31.0349 18.1596 36.2726 16.7339 38.5326 11.1952C38.5326 11.1952 40.9155 9.11385 39.6077 7.80258C39.6077 7.80258 38.1809 5.24378 34.1307 3.51762C34.1307 3.51762 31.453 1.97242 31.0375 1.43631C31.0375 1.43631 29.9069 -0.349047 25.7996 2.68385C25.7996 2.68385 25.0867 5.0073 26.4535 6.01893C26.4535 6.01893 28.5371 6.37719 29.4881 4.52981C29.4881 4.52981 29.6654 4.29588 29.3136 4.17495C29.3136 4.17495 30.0834 4.23386 30.5022 3.46041C30.5022 3.46041 32.289 4.17495 33.1179 6.318C33.9509 8.46275 33.8305 8.63664 34.3077 8.99745C34.3077 8.99745 30.6198 10.0111 29.7854 12.8052C29.7854 12.8052 25.7962 13.4591 25.1422 15.9604C25.1422 15.9604 21.9887 16.4348 22.6446 13.4591C22.6446 13.4591 23.1805 12.8052 24.6268 12.8859C24.6268 12.8859 25.3501 12.9261 24.825 11.5344C24.7763 11.4044 24.9485 11.2509 25.0434 11.0167C25.1332 10.8029 25.0465 10.7641 24.6495 10.4248C24.5195 10.3178 24.7551 10.0745 24.8542 9.81111C24.9165 9.65279 24.6495 9.07476 24.6495 9.07476C24.6495 9.07476 25.2694 8.58962 25.2416 8.36051C25.1796 7.81788 23.7355 7.5392 23.4965 7.05236C23.4011 6.85865 23.7384 6.42647 23.6948 6.22171C23.5308 5.44543 22.731 3.86455 21.6599 3.24772C20.1923 2.4046 16.1858 2.1364 14.4401 5.66831C13.9686 6.62132 14.3461 8.93061 14.7567 9.91476C15.141 10.8474 16.8692 13.3597 16.8692 13.3597C16.9505 13.5982 17.5019 17.093 14.4888 17.9622C14.4888 17.9622 11.7496 17.803 9.76603 19.6297C9.76603 19.6297 6.39359 19.3508 5.48195 21.3346C5.48195 21.3346 5.24717 17.8817 7.429 15.7806C7.429 15.7806 8.69664 16.0967 9.21293 15.7806C9.21293 15.7806 9.6097 17.0698 10.4817 16.5739C10.4817 16.5739 11.0997 16.7509 11.1976 16.1743C11.1976 16.1743 12.1079 16.1168 11.9306 15.2227C11.9306 15.2227 12.386 13.955 11.653 13.5988C11.653 13.5988 11.6882 12.488 10.6975 12.5265C10.6975 12.5265 8.8946 12.6599 8.29788 12.607C7.52076 12.5421 6.15258 12.8055 5.3208 14.2759L2.42727 18.3221C2.42727 18.3221 0.403746 21.02 0.126486 23.6779C0.129884 23.6765 -0.704729 25.6604 1.87388 26.094Z" fill="#B7B7B7"/>
</svg>
