<svg width="40" height="40" viewBox="0 0 40 40" fill="none" xmlns="http://www.w3.org/2000/svg">
<g clip-path="url(#clip0)">
<path d="M36.2663 22.2225C35.6109 21.1862 34.6907 20.3323 33.6009 19.8888L37.7166 12.4041C38.0285 11.837 37.8215 11.1244 37.2544 10.8125C36.687 10.5005 35.9747 10.7077 35.6629 11.2747L31.9186 18.0839C31.213 15.9237 29.2168 14.3618 26.8693 14.3618C24.4621 14.3618 22.4231 16.0037 21.7675 18.2496C21.4621 18.1619 21.1424 18.116 20.8159 18.116C19.2197 18.116 17.87 19.211 17.4518 20.7026C17.3693 20.6982 17.2865 20.696 17.2033 20.696C15.9065 20.696 14.7118 21.2862 13.8478 22.2224H36.2663V22.2225Z" fill="#B7B7B7"/>
<path d="M38.8282 24.5664H10.623C9.97586 24.5664 9.45117 25.0911 9.45117 25.7383C9.45117 26.3479 9.9168 26.8484 10.5118 26.9045C11.1071 34.2251 17.2544 40.0002 24.7256 40.0002C32.1969 40.0002 38.3441 34.2251 38.9395 26.9045C39.5344 26.8484 40.0001 26.3479 40.0001 25.7383C40.0001 25.0911 39.4754 24.5664 38.8282 24.5664Z" fill="#B7B7B7"/>
<path d="M1.17183 23.7739C0.881913 23.7739 0.591522 23.667 0.364803 23.4515C-0.104415 23.0057 -0.123322 22.2639 0.322459 21.7948L4.24527 17.6316L5.91293 19.3134L2.02152 23.4092C1.79121 23.6516 1.48176 23.7739 1.17183 23.7739Z" fill="#B7B7B7"/>
<path d="M12.1123 12.7923L18.5161 13.6347L20.3113 11.7453L13.9075 10.9028L12.1123 12.7923Z" fill="#B7B7B7"/>
<path d="M10.5716 11.0113L12.2479 9.24691L11.5419 2.39941L9.83789 4.19285L10.5716 11.0113Z" fill="#B7B7B7"/>
<path d="M5.91309 19.3134L8.65512 19.9017C9.03355 19.9829 9.41848 20.0225 9.80488 20.0225C11.4627 20.0225 13.1409 19.2926 14.3822 17.9861L16.5199 15.7363L10.1161 14.8938L5.91309 19.3134Z" fill="#B7B7B7"/>
<path d="M4.24532 17.6315L8.45415 13.2401L7.72048 6.42163L5.47493 8.78507C3.96704 10.3721 3.27759 12.6348 3.67571 14.6901L4.24532 17.6315Z" fill="#B7B7B7"/>
<path d="M22.3079 9.64416L22.3829 9.56526C22.8286 9.09604 22.8097 8.35432 22.3405 7.90846C21.8715 7.46276 21.1296 7.48166 20.6838 7.9508L19.4342 9.26604L22.3079 9.64416Z" fill="#B7B7B7"/>
<path d="M13.9839 3.23219L15.1747 1.97891C15.6205 1.50969 15.6016 0.767969 15.1324 0.322109C14.7266 -0.0634374 14.117 -0.100625 13.6713 0.199844L13.9839 3.23219Z" fill="#B7B7B7"/>
<path d="M19.4487 3.62645C18.9911 3.16879 18.2491 3.16879 17.7914 3.62645L14.2792 7.2159L14.4574 8.70027L15.9388 8.87184L19.4487 5.28379C19.9064 4.82605 19.9064 4.08402 19.4487 3.62645Z" fill="#B7B7B7"/>
</g>
<defs>
<clipPath id="clip0">
<rect width="40" height="40" fill="white"/>
</clipPath>
</defs>
</svg>
