<svg width="12" height="8" viewBox="0 0 12 8" fill="none" xmlns="http://www.w3.org/2000/svg">
<path d="M6.00254 5.15592L1.51317 0.666754C1.38985 0.543144 1.22498 0.475144 1.04917 0.475144C0.873268 0.475144 0.708487 0.543144 0.584975 0.666754L0.191805 1.06012C0.0680973 1.18353 -2.69979e-07 1.34851 -2.62294e-07 1.52431C-2.54609e-07 1.70012 0.0680973 1.8649 0.191805 1.98841L5.53678 7.33348C5.66068 7.45748 5.82624 7.52539 6.00224 7.5249C6.17902 7.52539 6.34439 7.45758 6.46839 7.33348L11.8082 1.99339C11.9319 1.86988 12 1.7051 12 1.52919C12 1.35339 11.9319 1.18861 11.8082 1.065L11.415 0.67173C11.1591 0.415827 10.7425 0.415827 10.4867 0.67173L6.00254 5.15592Z" fill="#4C9162"/>
</svg>
