<svg width="78" height="78" viewBox="0 0 78 78" fill="none" xmlns="http://www.w3.org/2000/svg">
<g filter="url(#filter0_d)">
<circle cx="39" cy="31" r="20" fill="white"/>
</g>
<g clip-path="url(#clip0)">
<path d="M42.6208 37.8292C42.8488 37.6011 42.8488 37.2325 42.6208 37.0044L36.6166 31.0002L42.6208 24.9961C42.8488 24.768 42.8488 24.3994 42.6208 24.1713C42.3927 23.9432 42.024 23.9432 41.796 24.1713L35.3794 30.5878C35.2657 30.7016 35.2085 30.8509 35.2085 31.0003C35.2085 31.1496 35.2657 31.2989 35.3794 31.4127L41.7959 37.8292C42.024 38.0573 42.3927 38.0573 42.6208 37.8292Z" fill="#434343"/>
</g>
<defs>
<filter id="filter0_d" x="0" y="0" width="78" height="78" filterUnits="userSpaceOnUse" color-interpolation-filters="sRGB">
<feFlood flood-opacity="0" result="BackgroundImageFix"/>
<feColorMatrix in="SourceAlpha" type="matrix" values="0 0 0 0 0 0 0 0 0 0 0 0 0 0 0 0 0 0 127 0"/>
<feOffset dy="8"/>
<feGaussianBlur stdDeviation="9.5"/>
<feColorMatrix type="matrix" values="0 0 0 0 0 0 0 0 0 0 0 0 0 0 0 0 0 0 0.21 0"/>
<feBlend mode="normal" in2="BackgroundImageFix" result="effect1_dropShadow"/>
<feBlend mode="normal" in="SourceGraphic" in2="effect1_dropShadow" result="shape"/>
</filter>
<clipPath id="clip0">
<rect width="14" height="14" fill="white" transform="translate(46 24) rotate(90)"/>
</clipPath>
</defs>
</svg>
