<svg width="99" height="46" viewBox="0 0 99 46" fill="none" xmlns="http://www.w3.org/2000/svg">
<path d="M0 34H8V46L0 34Z" fill="#356544"/>
<rect width="99" height="38" rx="5" fill="#4C9162"/>
<path d="M39.6267 23.78H45.2667V14.02H41.4667V15.08C41.4667 18.8933 40.8534 21.7933 39.6267 23.78ZM35.5267 23.78H36.9667C38.3401 21.7 39.0267 18.74 39.0267 14.9V11.8H47.8467V23.78H49.4267V28.8H47.1267V26H37.9067V28.8H35.5267V23.78ZM52.2975 24.74C51.2175 23.7267 50.6775 22.4467 50.6775 20.9C50.6775 19.3533 51.2175 18.08 52.2975 17.08C53.3775 16.0667 54.6975 15.56 56.2575 15.56C57.8308 15.56 59.1575 16.0667 60.2375 17.08C61.3308 18.08 61.8775 19.3533 61.8775 20.9C61.8775 22.4467 61.3375 23.7267 60.2575 24.74C59.1775 25.74 57.8508 26.24 56.2775 26.24C54.7042 26.24 53.3775 25.74 52.2975 24.74ZM53.2575 20.9C53.2575 21.8333 53.5442 22.6 54.1175 23.2C54.7042 23.7867 55.4242 24.08 56.2775 24.08C57.1308 24.08 57.8508 23.7867 58.4375 23.2C59.0242 22.6 59.3175 21.8333 59.3175 20.9C59.3175 19.98 59.0175 19.22 58.4175 18.62C57.8308 18.02 57.1175 17.72 56.2775 17.72C55.4375 17.72 54.7242 18.02 54.1375 18.62C53.5508 19.22 53.2575 19.98 53.2575 20.9Z" fill="white"/>
</svg>
