<svg width="178" height="113" viewBox="0 0 178 113" fill="none" xmlns="http://www.w3.org/2000/svg">
<g clip-path="url(#clip0)" filter="url(#filter0_d)">
<path d="M9.56029 84.9429H11.2171C11.4197 84.9292 11.6229 84.9292 11.8254 84.9429C11.9119 84.953 11.9933 84.9888 12.059 85.0457C12.1247 85.1026 12.1716 85.178 12.1936 85.2619C12.205 85.3333 12.205 85.4059 12.1936 85.4773V88.9305C12.1936 89.1697 12.1936 89.4329 12.1936 89.728C12.1711 89.9608 12.2214 90.1948 12.3377 90.3979C12.3661 90.4358 12.4022 90.4674 12.4435 90.4907C12.4848 90.5141 12.5305 90.5286 12.5778 90.5335C12.6807 90.5426 12.7825 90.5613 12.8819 90.5893H16.8839H17.6843C17.7886 90.5993 17.8936 90.5809 17.988 90.5359C18.0825 90.4909 18.1629 90.4212 18.2206 90.3341C18.2986 90.1589 18.329 89.9664 18.3087 89.7759C18.3087 89.5286 18.3087 89.3053 18.3087 89.1139V86.4263C18.3087 86.2269 18.3087 85.9797 18.3087 85.7085C18.2765 85.5042 18.3253 85.2955 18.4447 85.1264C18.5076 85.0466 18.5998 84.9949 18.7009 84.9828C18.849 84.9568 18.9988 84.9408 19.1491 84.9349H20.8139C21.0158 84.9117 21.2189 84.9659 21.3822 85.0865C21.4324 85.1277 21.4717 85.1804 21.4968 85.2402C21.5219 85.2999 21.532 85.3649 21.5263 85.4294V99.1307C21.5346 99.2002 21.5258 99.2706 21.5007 99.3359C21.4756 99.4012 21.435 99.4594 21.3822 99.5055C21.2127 99.6322 20.9997 99.6867 20.7899 99.6571H19.061C18.9171 99.6664 18.7727 99.6664 18.6288 99.6571C18.5783 99.6568 18.5286 99.6443 18.484 99.6207C18.4394 99.5971 18.4012 99.5631 18.3727 99.5215C18.3142 99.4397 18.2808 99.3427 18.2766 99.2424C18.2542 99.1051 18.2409 98.9666 18.2366 98.8277C18.2286 98.6842 18.2286 98.5404 18.2366 98.397C18.2366 98.2534 18.2366 98.1258 18.2366 98.0142C18.2366 97.2725 18.2366 96.5228 18.2366 95.7732C18.2366 95.3983 18.2366 95.0315 18.2366 94.6567C18.2789 94.3158 18.2599 93.9701 18.1806 93.6358C18.1287 93.5395 18.0493 93.4608 17.9524 93.4097C17.8554 93.3585 17.7454 93.3373 17.6363 93.3487H12.7699L12.5058 93.4205C12.4266 93.4482 12.3589 93.5016 12.3137 93.572C12.2792 93.6736 12.2524 93.7775 12.2336 93.8831C12.2018 94.172 12.2018 94.4635 12.2336 94.7524V98.9872C12.2473 99.1742 12.2025 99.3608 12.1056 99.5215C12.0766 99.5626 12.0383 99.5963 11.9938 99.6198C11.9493 99.6434 11.8998 99.6562 11.8494 99.6571C11.7055 99.666 11.5611 99.666 11.4172 99.6571H9.81641C9.61737 99.6796 9.41618 99.6407 9.24013 99.5454C9.18118 99.4984 9.1334 99.439 9.10019 99.3714C9.06698 99.3039 9.04917 99.2299 9.04803 99.1546C9.04803 98.9712 9.04803 98.7878 9.04803 98.5964V85.565C9.03968 85.4274 9.06726 85.29 9.12807 85.1662C9.19425 85.0648 9.29769 84.9932 9.41621 84.9668H9.51226L9.56029 84.9429Z" fill="white"/>
<path d="M25.1041 84.9429C25.3492 84.9268 25.5952 84.9268 25.8404 84.9429H34.7089C34.8688 84.9346 35.0291 84.9346 35.1891 84.9429C35.2525 84.9423 35.3151 84.9564 35.3721 84.9841C35.429 85.0118 35.4787 85.0523 35.5173 85.1024C35.5455 85.146 35.5646 85.1948 35.5733 85.246C35.5781 85.3044 35.5944 85.3613 35.6213 85.4134V85.6447C35.6334 85.7454 35.6334 85.8471 35.6213 85.9478C35.6213 86.0594 35.6213 86.1631 35.6213 86.2588C35.6213 86.3545 35.6213 86.4741 35.6213 86.5778C35.6334 86.6785 35.6334 86.7802 35.6213 86.8809C35.6107 86.9843 35.6107 87.0885 35.6213 87.1919C35.6129 87.2583 35.5899 87.3221 35.5539 87.3786C35.518 87.4351 35.4699 87.483 35.4132 87.5189C35.3232 87.5784 35.2171 87.609 35.1091 87.6066H29.5063H29.1221H28.6898C28.5529 87.6138 28.4165 87.6298 28.2816 87.6545C28.1855 87.6629 28.0924 87.6929 28.0095 87.7422C27.9615 87.7786 27.9212 87.8241 27.891 87.8761C27.8608 87.9282 27.8412 87.9856 27.8334 88.0452C27.8246 88.1913 27.8246 88.3378 27.8334 88.4839V90.2623C27.851 90.3577 27.8778 90.4512 27.9135 90.5415C27.9243 90.5789 27.9426 90.6138 27.9674 90.644C27.9921 90.6741 28.0228 90.6989 28.0575 90.7169C28.1429 90.7746 28.2426 90.8078 28.3457 90.8126H33.7484C33.8897 90.8046 34.0313 90.8046 34.1726 90.8126H34.5568C34.648 90.8144 34.7369 90.8421 34.8129 90.8924C34.8942 90.9517 34.9488 91.0405 34.965 91.1396C34.9903 91.2739 35.0063 91.4098 35.013 91.5463C35.0211 91.6924 35.0211 91.8389 35.013 91.985C35.013 92.1365 35.013 92.2721 35.013 92.3758V92.6708C35.0259 92.7527 35.0259 92.8362 35.013 92.9181C34.9846 93.0228 34.9262 93.117 34.8449 93.1892C34.7572 93.2327 34.6623 93.2597 34.5648 93.269C34.4342 93.2774 34.3032 93.2774 34.1726 93.269H28.7379C28.5967 93.2567 28.4548 93.2567 28.3137 93.269C28.1961 93.2867 28.084 93.3303 27.9855 93.3966C27.888 93.4633 27.8172 93.5621 27.7854 93.6757C27.7768 93.7472 27.7768 93.8195 27.7854 93.891V96.1081C27.7763 96.2569 27.7763 96.406 27.7854 96.5547C27.7932 96.6143 27.8128 96.6718 27.843 96.7238C27.8732 96.7759 27.9135 96.8214 27.9615 96.8578C28.0063 96.8973 28.0621 96.9223 28.1216 96.9296C28.6965 96.9774 29.2737 96.9933 29.8504 96.9774H35.1651C35.2622 96.9767 35.3581 96.9985 35.4452 97.0412C35.4992 97.0592 35.5483 97.0895 35.5886 97.1297C35.6289 97.1698 35.6592 97.2187 35.6773 97.2725C35.7078 97.3514 35.7241 97.4351 35.7254 97.5197C35.7254 97.6154 35.7254 97.7191 35.7254 97.8228V98.7798C35.7338 98.9339 35.7338 99.0883 35.7254 99.2424C35.7226 99.3064 35.7045 99.3688 35.6725 99.4243C35.6404 99.4798 35.5954 99.5268 35.5413 99.5614C35.4506 99.6333 35.3369 99.6701 35.2211 99.665H25.4642C25.2964 99.6785 25.1278 99.6785 24.96 99.665C24.8934 99.6599 24.829 99.6392 24.7719 99.6045C24.7149 99.5699 24.6669 99.5223 24.6318 99.4657C24.5761 99.3687 24.5484 99.2583 24.5518 99.1467V85.5091C24.5481 85.405 24.576 85.3022 24.6318 85.2141C24.7492 85.0674 24.9179 84.9706 25.1041 84.9429Z" fill="white"/>
<path d="M50.933 98.6761C51.0503 98.8992 51.103 99.1505 51.085 99.4018C51.0787 99.4421 51.0621 99.4801 51.0369 99.5122C51.0117 99.5443 50.9787 99.5695 50.941 99.5853C50.7687 99.6654 50.5774 99.6958 50.3887 99.673H49.7644H48.4837C48.3995 99.693 48.3118 99.693 48.2276 99.673C48.1573 99.6576 48.091 99.6277 48.0331 99.5851C47.9752 99.5425 47.9269 99.4882 47.8914 99.4258C47.8231 99.3172 47.7719 99.1989 47.7394 99.0749C47.7047 98.9489 47.6591 98.8262 47.6033 98.708L47.3872 98.0461C47.3071 97.8228 47.2351 97.6074 47.1471 97.4001C47.059 97.1927 47.067 97.1688 47.035 97.0651C47.0053 96.9692 46.9678 96.8759 46.923 96.786C46.8792 96.6985 46.8129 96.6242 46.7309 96.5707C46.6344 96.4992 46.5216 96.4526 46.4027 96.4351H46.2026H41.9765C41.7549 96.417 41.5333 96.4701 41.3442 96.5866C41.2356 96.6733 41.1549 96.7897 41.112 96.9216C41.112 97.0571 41.024 97.1927 40.968 97.3363C40.8615 97.573 40.768 97.8152 40.6878 98.062C40.6158 98.3172 40.5278 98.5724 40.4317 98.8595C40.3357 99.1466 40.3277 99.1387 40.2796 99.2902C40.2404 99.4303 40.1561 99.5536 40.0395 99.6411C39.9496 99.7053 39.8451 99.7464 39.7354 99.7607C39.5914 99.7698 39.4471 99.7698 39.3031 99.7607H38.8149H37.7264C37.5377 99.7795 37.3475 99.7493 37.1741 99.673C37.1422 99.6515 37.1155 99.6232 37.0961 99.59C37.0767 99.5569 37.0651 99.5198 37.062 99.4816C37.0465 99.3972 37.0465 99.3108 37.062 99.2264C37.0775 99.1392 37.1016 99.0537 37.1341 98.9712C37.1553 98.9001 37.1821 98.8308 37.2141 98.7638C37.3502 98.4448 37.4782 98.1178 37.5983 97.7909C37.7184 97.4639 37.8384 97.1369 37.9585 96.8179C38.0115 96.7132 38.0544 96.6037 38.0865 96.4909C38.1158 96.3757 38.156 96.2636 38.2066 96.156C38.3186 95.8688 38.4307 95.5738 38.5428 95.2707L38.8709 94.3855C38.983 94.1063 39.087 93.8352 39.1831 93.588C39.2791 93.3407 39.3832 93.0536 39.4952 92.7904C39.8154 91.9929 40.1035 91.2672 40.3757 90.4936C40.6478 89.72 40.936 88.9624 41.2561 88.2047C41.2821 88.1453 41.3035 88.084 41.3202 88.0213C41.3366 87.956 41.358 87.892 41.3842 87.8299C41.4962 87.5428 41.6003 87.2477 41.7123 86.9447C41.8244 86.6416 41.9445 86.3465 42.0645 86.0594C42.135 85.9072 42.1938 85.7499 42.2406 85.5889C42.2886 85.438 42.3805 85.3047 42.5047 85.2061C42.8169 84.9668 43.3051 85.0785 43.6733 85.0864C44.0415 85.0944 44.4017 85.0864 44.7619 85.0864H45.2261C45.375 85.0765 45.523 85.1156 45.6474 85.1978C45.7718 85.2799 45.8656 85.4005 45.9144 85.541C45.9638 85.7038 46.0226 85.8636 46.0905 86.0195C46.1866 86.2588 46.2746 86.4901 46.3547 86.7134C46.4427 86.9447 46.5308 87.1759 46.6268 87.4072L46.7068 87.6544C46.7068 87.7342 46.7629 87.8219 46.7949 87.9017C46.9069 88.1808 47.003 88.452 47.107 88.6992C47.2111 88.9464 47.3071 89.2415 47.4112 89.4967C47.6913 90.1826 47.9475 90.8764 48.2116 91.5782C48.4757 92.28 48.7158 92.9818 49.012 93.6677C49.0398 93.7144 49.0587 93.7658 49.068 93.8192C49.0777 93.8741 49.0938 93.9276 49.1161 93.9787C49.2041 94.1941 49.2841 94.4174 49.3642 94.6407C49.4442 94.864 49.5323 95.0793 49.6123 95.3026C49.6652 95.4046 49.7081 95.5114 49.7404 95.6216C49.7689 95.7298 49.8037 95.8363 49.8444 95.9406C50.0205 96.3793 50.1886 96.8179 50.3407 97.2645C50.4927 97.7111 50.6208 98.0142 50.7649 98.381C50.8129 98.389 50.8769 98.5007 50.933 98.6761ZM45.5543 93.9468C45.8904 93.8192 45.8024 93.4843 45.7143 93.2052C45.4902 92.4874 45.2581 91.7776 45.01 91.0678C44.8819 90.7089 44.7459 90.35 44.6098 89.9991C44.4737 89.6482 44.4177 89.2016 44.1696 89.09C43.9215 88.9783 43.6653 89.6163 43.5933 89.8077C43.4812 90.1267 43.3692 90.4458 43.2491 90.7648C42.985 91.5064 42.6808 92.2481 42.4487 93.0058C42.4487 93.1413 42.3687 93.2769 42.3287 93.4285C42.2809 93.5489 42.2809 93.6829 42.3287 93.8033C42.3704 93.8544 42.4228 93.8958 42.4822 93.9248C42.5417 93.9537 42.6067 93.9694 42.6728 93.9708H43.1611H45.1541C45.2879 93.9814 45.4226 93.9734 45.5543 93.9468Z" fill="white"/>
<path d="M53.2621 84.9429C53.4594 84.9302 53.6572 84.9302 53.8544 84.9429C54.2466 84.9429 54.6548 84.9429 55.023 84.9429H55.4712C55.5335 84.9423 55.595 84.9564 55.6506 84.9841C55.7063 85.0119 55.7546 85.0524 55.7914 85.1024C55.8671 85.2153 55.9036 85.3497 55.8954 85.4852V94.1223C55.8954 94.5689 55.8954 95.0075 55.8954 95.4462C55.8534 95.8624 55.8805 96.2828 55.9755 96.6903C56.0393 96.7834 56.1275 96.8571 56.2306 96.9036C56.3336 96.95 56.4475 96.9672 56.5598 96.9535H61.8424C62.0078 96.9535 62.1679 96.9535 62.3227 96.9535C62.465 96.9602 62.6067 96.9762 62.7469 97.0013C62.7995 97.0063 62.8507 97.0216 62.8973 97.0464C62.944 97.0712 62.9853 97.105 63.0188 97.1458C63.0523 97.1866 63.0773 97.2336 63.0925 97.2841C63.1076 97.3346 63.1126 97.3875 63.107 97.44V98.7798C63.107 98.8914 63.107 98.9951 63.107 99.0908C63.1248 99.1723 63.1248 99.2566 63.107 99.338C63.0618 99.4337 62.9895 99.5141 62.8989 99.5693C62.8064 99.6292 62.6968 99.6572 62.5868 99.6491H53.5983C53.4278 99.6627 53.2565 99.6627 53.086 99.6491C53.0207 99.6433 52.9576 99.6223 52.902 99.5876C52.8463 99.553 52.7997 99.5057 52.7659 99.4497C52.7067 99.3542 52.6787 99.2427 52.6858 99.1307V85.8281C52.6858 85.7085 52.6858 85.5809 52.6858 85.4613C52.6877 85.3588 52.7123 85.2581 52.7579 85.1662C52.8174 85.091 52.8945 85.0314 52.9823 84.9925C53.0702 84.9536 53.1662 84.9365 53.2621 84.9429Z" fill="white"/>
<path d="M70.7669 84.9429H73.4082C73.5564 84.9465 73.7018 84.9847 73.8324 85.0546C73.8751 85.0913 73.9081 85.1378 73.9285 85.1902L73.9765 85.3895V85.4932C73.9848 85.5541 73.9848 85.6158 73.9765 85.6766V86.6895C73.9765 86.7852 73.9765 86.8809 73.9765 86.9686C73.9927 87.0529 73.9927 87.1395 73.9765 87.2238C73.9589 87.3236 73.9084 87.4146 73.833 87.4825C73.7576 87.5504 73.6616 87.5913 73.5603 87.5987C73.3522 87.5987 73.104 87.5987 72.8159 87.5987H70.7269C70.4896 87.5848 70.2517 87.5848 70.0145 87.5987C69.5663 87.5987 69.5983 88.125 69.5903 88.452C69.5903 89.2495 69.5903 89.9832 69.5903 90.7409V98.6363C69.5903 98.8516 69.5903 99.043 69.5903 99.2025C69.5805 99.2778 69.5509 99.3492 69.5045 99.4094C69.4581 99.4696 69.3966 99.5165 69.3262 99.5454C69.2172 99.5586 69.107 99.5586 68.998 99.5454H67.2371C67.0932 99.5538 66.9488 99.5538 66.8049 99.5454C66.748 99.5443 66.6921 99.5309 66.641 99.5061C66.5898 99.4813 66.5447 99.4458 66.5087 99.4019C66.4354 99.2733 66.3994 99.127 66.4047 98.9792V90.7249C66.4047 90.2703 66.4047 89.8078 66.4047 89.3532C66.4047 89.1139 66.4047 88.8827 66.4047 88.6434C66.441 88.443 66.441 88.2377 66.4047 88.0373C66.3842 87.9375 66.3318 87.847 66.2553 87.7794C66.1788 87.7118 66.0824 87.6708 65.9805 87.6625C65.7139 87.6475 65.4467 87.6475 65.1801 87.6625H62.7229C62.5743 87.6851 62.4232 87.6851 62.2746 87.6625C62.1744 87.6292 62.0875 87.5649 62.0265 87.479C61.9828 87.395 61.9583 87.3024 61.9545 87.2079C61.9545 87.0962 61.9545 86.9846 61.9545 86.8809V85.8681C61.9409 85.7088 61.9409 85.5488 61.9545 85.3895C61.9599 85.3264 61.9802 85.2653 62.0135 85.2113C62.0469 85.1573 62.0924 85.1118 62.1466 85.0785C62.2194 85.0402 62.2977 85.0133 62.3787 84.9988H70.7669V84.9429Z" fill="white"/>
<path d="M76.2577 84.9429H77.9305C78.1357 84.9295 78.3416 84.9295 78.5468 84.9429C78.6318 84.9545 78.7115 84.9909 78.7757 85.0478C78.8398 85.1046 78.8855 85.1791 78.907 85.2619C78.9184 85.3333 78.9184 85.4059 78.907 85.4773V88.9305C78.907 89.1697 78.907 89.4329 78.907 89.728C78.8823 89.9619 78.9358 90.1974 79.0591 90.3979C79.0852 90.4363 79.1195 90.4684 79.1597 90.4919C79.1999 90.5154 79.2448 90.5296 79.2912 90.5335C79.3942 90.5419 79.4961 90.5606 79.5953 90.5893H83.5973H84.3977C84.502 90.5993 84.6069 90.5809 84.7014 90.5359C84.7959 90.4909 84.8763 90.4212 84.934 90.3341C85.012 90.1589 85.0423 89.9664 85.022 89.7759C85.022 89.5286 85.022 89.3053 85.022 89.1139V86.4263C85.022 86.2269 85.022 85.9797 85.022 85.7085C84.9962 85.5045 85.0445 85.298 85.1581 85.1263C85.2226 85.0485 85.3139 84.9973 85.4142 84.9828C85.5624 84.9568 85.7122 84.9408 85.8625 84.9349C86.4147 84.9349 86.975 84.9349 87.5273 84.9349C87.7292 84.9117 87.9323 84.9659 88.0956 85.0865C88.1483 85.1258 88.19 85.1781 88.2166 85.2381C88.2433 85.2982 88.254 85.364 88.2477 85.4294V99.1307C88.2565 99.2009 88.2472 99.2722 88.2206 99.3378C88.194 99.4034 88.1509 99.4612 88.0956 99.5055C87.9281 99.6301 87.7184 99.6845 87.5113 99.6571H85.7584C85.6145 99.666 85.4701 99.666 85.3262 99.6571C85.2758 99.6561 85.2264 99.6434 85.1818 99.6198C85.1373 99.5963 85.099 99.5626 85.0701 99.5215C85.0148 99.4381 84.9818 99.342 84.974 99.2424C84.965 99.1043 84.965 98.9657 84.974 98.8277C84.966 98.6842 84.966 98.5404 84.974 98.397C84.974 98.2534 84.974 98.1258 84.974 98.0142V95.0634C84.974 94.6327 84.974 94.1941 84.974 93.7634C84.9824 93.7213 84.9824 93.678 84.974 93.6358C84.9227 93.5409 84.8445 93.463 84.7492 93.412C84.6538 93.361 84.5455 93.339 84.4378 93.3487H79.4673L79.2031 93.4205C79.1239 93.4482 79.0563 93.5016 79.011 93.572C78.9765 93.6736 78.9498 93.7775 78.931 93.8831C78.879 94.4135 78.879 94.9477 78.931 95.4781V98.9872C78.9446 99.1742 78.8999 99.3608 78.8029 99.5215C78.7744 99.5631 78.7362 99.5971 78.6916 99.6207C78.647 99.6443 78.5973 99.6568 78.5468 99.6571C78.4029 99.6664 78.2585 99.6664 78.1146 99.6571H76.5138C76.3148 99.6796 76.1136 99.6406 75.9375 99.5454C75.8787 99.4988 75.8315 99.4393 75.7996 99.3715C75.7676 99.3037 75.7518 99.2295 75.7534 99.1546C75.7534 98.9712 75.7534 98.7878 75.7534 98.5964V85.565C75.7451 85.4274 75.7726 85.29 75.8335 85.1662C75.8668 85.1148 75.9102 85.0707 75.9611 85.0364C76.012 85.0022 76.0693 84.9785 76.1296 84.9668H76.2176L76.2577 84.9429Z" fill="white"/>
<path d="M90.2486 84.9429C90.5818 84.9229 90.9159 84.9229 91.2491 84.9429H92.5938C92.7427 84.9384 92.8907 84.9684 93.026 85.0306C93.1963 85.1117 93.3324 85.2501 93.4102 85.4214C93.4994 85.5917 93.5983 85.7568 93.7063 85.9159C93.9464 86.2907 94.1626 86.6576 94.3707 87.0324C94.5788 87.4072 94.8029 87.7741 95.035 88.1489C95.2167 88.4005 95.385 88.6614 95.5392 88.9305C95.6913 89.2096 95.8594 89.4888 96.0355 89.728C96.113 89.8428 96.1825 89.9627 96.2436 90.0869C96.2782 90.1492 96.3264 90.203 96.3845 90.2444C96.4427 90.2858 96.5094 90.3137 96.5798 90.3261C96.6265 90.331 96.6738 90.3241 96.7171 90.3059C96.7605 90.2878 96.7986 90.2591 96.8279 90.2225L96.996 90.0151C97.116 89.8237 97.2281 89.6323 97.3321 89.4329C97.4362 89.2335 97.5563 89.0501 97.6763 88.8587C97.9645 88.3882 98.2526 87.9177 98.5247 87.4391L99.3732 86.0036C99.4852 85.8282 99.6053 85.6208 99.7333 85.3895C99.827 85.178 99.9949 85.0079 100.206 84.911C100.392 84.8307 100.597 84.8031 100.798 84.8313H101.494H102.655H102.991C103.089 84.8327 103.185 84.8573 103.271 84.903C103.298 84.918 103.322 84.9381 103.341 84.9624C103.36 84.9866 103.374 85.0144 103.383 85.0441C103.391 85.0738 103.393 85.1049 103.389 85.1354C103.385 85.166 103.375 85.1954 103.359 85.2221C103.318 85.3314 103.27 85.438 103.215 85.5411L102.727 86.3386L102.239 87.1361C101.766 87.8778 101.318 88.6195 100.878 89.3612C100.438 90.1028 99.9975 90.8525 99.5412 91.5942C99.3892 91.8175 99.2451 92.0408 99.117 92.2641C98.989 92.4874 98.8529 92.7267 98.7168 92.9579C98.6072 93.1038 98.5057 93.2556 98.4127 93.4125C98.3205 93.5763 98.2479 93.7503 98.1966 93.9309C98.126 94.2745 98.1071 94.6266 98.1405 94.9757C98.1405 95.3824 98.1405 95.7732 98.1405 96.1959C98.1405 97.0651 98.1405 97.9344 98.1405 98.8037C98.16 98.9158 98.1479 99.0311 98.1055 99.1367C98.0631 99.2423 97.9921 99.3341 97.9004 99.4019C97.8042 99.4599 97.6926 99.4877 97.5803 99.4816H95.7474C95.6087 99.49 95.4697 99.49 95.3311 99.4816C95.2759 99.478 95.222 99.4634 95.1726 99.4387C95.1231 99.4141 95.079 99.3799 95.043 99.3381C94.9738 99.2554 94.9368 99.1506 94.9389 99.043C94.9455 98.9128 94.9455 98.7824 94.9389 98.6522V94.1223C94.9518 94.0431 94.9518 93.9623 94.9389 93.8831C94.8887 93.6881 94.8134 93.5005 94.7148 93.3248C94.6108 93.1573 94.5147 92.9978 94.4027 92.8463L94.0265 92.2003C93.9064 91.985 93.7704 91.7696 93.6343 91.5463C93.5214 91.3947 93.4248 91.2317 93.3462 91.0599C93.2599 90.893 93.1609 90.7331 93.05 90.5814C92.6925 90.0125 92.3483 89.4462 92.0175 88.8826L90.9529 87.3355L90.4727 86.538C90.3206 86.2827 90.1686 86.0196 90.0165 85.7404C90.0165 85.6846 89.9204 85.5969 89.8404 85.4613C89.8092 85.411 89.7927 85.353 89.7927 85.2938C89.7927 85.2347 89.8092 85.1767 89.8404 85.1264C89.8619 85.0742 89.9017 85.0317 89.9524 85.0067C90.0482 84.9736 90.1476 84.9521 90.2486 84.9429Z" fill="white"/>
<path d="M112.059 84.9429C112.155 84.9429 112.26 84.9429 112.356 84.9429H120.992C121.136 84.9346 121.28 84.9346 121.424 84.9429C121.542 84.9507 121.654 85.0019 121.736 85.0864C121.797 85.1683 121.836 85.2645 121.848 85.3656C121.861 85.4955 121.861 85.6264 121.848 85.7564C121.848 85.9079 121.848 86.0514 121.848 86.195C121.848 86.3385 121.848 86.4741 121.848 86.5938C121.848 86.7134 121.848 86.7852 121.848 86.8888C121.857 86.9764 121.857 87.0645 121.848 87.152C121.819 87.2162 121.794 87.283 121.776 87.3514C121.753 87.413 121.711 87.466 121.656 87.5029C121.484 87.6018 121.285 87.6437 121.088 87.6225H120.392H115.589C115.359 87.6005 115.127 87.639 114.917 87.7342C114.815 87.8127 114.742 87.9218 114.709 88.0452C114.668 88.2828 114.668 88.5254 114.709 88.763V89.7998C114.709 89.8715 114.709 89.9513 114.709 90.047C114.696 90.1289 114.696 90.2123 114.709 90.2942V90.5255C114.729 90.6325 114.761 90.7368 114.805 90.8365C114.825 90.881 114.855 90.9204 114.892 90.9521C114.93 90.9838 114.974 91.0069 115.021 91.02C115.1 91.0504 115.184 91.0666 115.269 91.0678H115.581H119.247H119.631H120.071H120.464C120.555 91.0732 120.644 91.1036 120.72 91.1555C120.796 91.2222 120.854 91.3067 120.889 91.4014C120.924 91.4961 120.934 91.598 120.92 91.6978C120.92 91.969 120.92 92.2162 120.92 92.4316C120.92 92.6469 120.92 92.6628 120.92 92.7984C120.936 92.9175 120.936 93.0382 120.92 93.1573C120.881 93.2847 120.799 93.3946 120.688 93.4683C120.51 93.5372 120.317 93.5619 120.127 93.5401H116.045C115.781 93.5401 115.525 93.5401 115.245 93.5401C115.146 93.5336 115.048 93.5577 114.963 93.6091C114.879 93.6605 114.812 93.7367 114.773 93.8272C114.745 93.8669 114.731 93.9145 114.733 93.9628C114.733 95.1272 114.733 96.2836 114.733 97.4479V98.0859C114.733 98.2773 114.733 98.5166 114.733 98.7957C114.767 99.0158 114.725 99.241 114.613 99.4337C114.333 99.7767 113.748 99.6411 113.372 99.6172C112.996 99.5932 112.46 99.6172 111.995 99.6172C111.879 99.6155 111.767 99.5763 111.675 99.5055C111.627 99.4676 111.588 99.419 111.562 99.3637C111.535 99.3084 111.522 99.2478 111.523 99.1865C111.523 99.043 111.523 98.8914 111.523 98.7399V86.4263C111.523 86.2349 111.523 86.0116 111.523 85.7484C111.501 85.557 111.535 85.3633 111.619 85.1901C111.667 85.1165 111.732 85.0556 111.809 85.0125C111.885 84.9695 111.971 84.9456 112.059 84.9429Z" fill="white"/>
<path d="M137.36 91.8015C137.372 92.0406 137.372 92.2802 137.36 92.5193C137.33 93.3945 137.19 94.2625 136.944 95.1033C136.881 95.3374 136.8 95.5666 136.704 95.7891C136.323 96.698 135.75 97.5141 135.023 98.1817C133.791 99.2675 132.224 99.9007 130.581 99.9761C130.022 100.004 129.462 99.9801 128.908 99.9043C128.411 99.8301 127.923 99.7072 127.451 99.5374L126.979 99.354C126.189 99.0193 125.473 98.5313 124.874 97.9185C123.81 96.7717 123.125 95.3268 122.913 93.7794C122.769 92.8652 122.769 91.9342 122.913 91.02C123.116 89.4351 123.784 87.9452 124.834 86.7373C125.02 86.5345 125.221 86.3453 125.434 86.1711C126.719 85.1368 128.321 84.5737 129.972 84.5761C130.72 84.561 131.465 84.6468 132.19 84.8313L132.358 84.8791C133.044 85.095 133.694 85.4122 134.287 85.8202C134.463 85.9398 134.647 86.0834 134.847 86.2429C135.591 86.8754 136.179 87.6693 136.568 88.5636C136.648 88.763 136.72 88.9464 136.784 89.1219C137.097 89.9848 137.291 90.8864 137.36 91.8015ZM134.159 92.6708C134.211 91.6396 134.042 90.609 133.662 89.6483C133.381 88.9755 132.925 88.3892 132.342 87.9495C131.85 87.624 131.292 87.4109 130.708 87.3254C130.124 87.24 129.529 87.2842 128.964 87.4551C128.827 87.4868 128.693 87.5295 128.564 87.5827C128.02 87.8038 127.543 88.1609 127.179 88.6195C126.827 89.1042 126.557 89.643 126.379 90.2145C126.121 91.0638 126.028 91.9544 126.106 92.8383C126.158 93.8196 126.432 94.7766 126.907 95.6376C127.103 95.998 127.376 96.3111 127.707 96.5547C127.768 96.6238 127.841 96.6807 127.923 96.7222L128.164 96.8498C128.314 96.9434 128.475 97.0184 128.644 97.0731C129.036 97.2001 129.441 97.2805 129.852 97.3124C130.501 97.362 131.152 97.2407 131.739 96.9608C132.327 96.6808 132.83 96.252 133.198 95.7173C133.621 95.0497 133.894 94.2988 133.998 93.5162C134.065 93.2375 134.116 92.9553 134.151 92.6708H134.159Z" fill="white"/>
<path d="M153.552 91.8015C153.648 92.9102 153.514 94.0266 153.159 95.0815C152.803 96.1365 152.234 97.1075 151.487 97.9344C151.402 98.0255 151.311 98.1107 151.215 98.1896C150.287 98.9863 149.179 99.5475 147.986 99.8252C146.793 100.103 145.55 100.089 144.364 99.7847C143.957 99.6879 143.561 99.5544 143.179 99.3859C142.387 99.0552 141.67 98.5667 141.074 97.9504C140.34 97.1283 139.781 96.1669 139.431 95.1238C139.08 94.0808 138.945 92.9778 139.033 91.8813C139.093 90.4763 139.497 89.1073 140.21 87.8937C140.598 87.2727 141.082 86.7158 141.642 86.2428C142.239 85.7706 142.902 85.3889 143.611 85.1104C143.795 85.0368 143.985 84.9807 144.18 84.9429C144.38 84.9429 144.58 84.8552 144.772 84.7993C144.838 84.7888 144.906 84.7888 144.972 84.7993C145.036 84.8067 145.1 84.8067 145.164 84.7993C145.758 84.7116 146.36 84.6955 146.957 84.7515C147.5 84.7836 148.037 84.88 148.558 85.0386C149.245 85.253 149.895 85.5703 150.487 85.9797C150.663 86.0993 150.855 86.2429 151.047 86.4024C151.224 86.544 151.383 86.7074 151.519 86.8888C151.593 86.9566 151.662 87.0285 151.727 87.1042C152.158 87.577 152.509 88.1155 152.768 88.6992C153.192 89.6855 153.457 90.7326 153.552 91.8015ZM150.295 92.6628C150.381 91.6356 150.221 90.6026 149.83 89.6482C149.549 88.9755 149.093 88.3892 148.51 87.9495C148.018 87.624 147.46 87.4109 146.876 87.3254C146.293 87.2399 145.697 87.2842 145.132 87.4551C144.995 87.4868 144.862 87.5295 144.732 87.5827C144.189 87.8017 143.715 88.1593 143.355 88.6194C143 89.1025 142.73 89.6418 142.555 90.2145C142.266 91.4492 142.228 92.7291 142.443 93.9788C142.463 94.1262 142.501 94.2707 142.555 94.4094C142.702 94.8354 142.89 95.2466 143.115 95.6376C143.311 95.998 143.584 96.3111 143.915 96.5547C143.976 96.6238 144.049 96.6807 144.132 96.7222L144.372 96.8498C144.524 96.9449 144.688 97.02 144.86 97.0731C145.768 97.3962 146.761 97.3962 147.669 97.0731C148.196 96.8775 148.672 96.5668 149.062 96.1639C149.437 95.7398 149.73 95.2505 149.926 94.7204C149.996 94.5593 150.047 94.3907 150.079 94.218C150.184 93.7048 150.256 93.1853 150.295 92.6628Z" fill="white"/>
<path d="M168.984 91.8175C169.02 92.2793 169.02 92.7433 168.984 93.2052C168.89 94.6799 168.392 96.1007 167.543 97.3124C167.2 97.7796 166.78 98.1866 166.303 98.5166C164.947 99.3594 163.359 99.7556 161.764 99.6491H156.962C156.765 99.663 156.567 99.663 156.37 99.6491C156.292 99.6411 156.219 99.6103 156.159 99.5606C156.099 99.5108 156.055 99.4445 156.033 99.3699C155.98 99.2081 155.961 99.037 155.977 98.8675C155.977 98.6362 155.977 98.4448 155.977 98.2933V86.1392C155.977 85.9717 155.977 85.7962 155.977 85.6128C155.965 85.4578 155.998 85.3026 156.073 85.1662C156.153 85.0677 156.263 84.9978 156.386 84.9668C156.398 84.9611 156.412 84.9581 156.426 84.9581C156.439 84.9581 156.453 84.9611 156.466 84.9668C156.478 84.9726 156.492 84.9755 156.506 84.9755C156.52 84.9755 156.533 84.9726 156.546 84.9668H160.308C161.646 84.9044 162.987 84.9792 164.31 85.1901C165.389 85.4268 166.371 85.9828 167.127 86.7852C167.851 87.5169 168.381 88.4155 168.672 89.401C168.868 90.192 168.973 91.0028 168.984 91.8175ZM165.782 92.8144C165.806 92.4319 165.806 92.0484 165.782 91.666C165.72 91.093 165.605 90.527 165.438 89.9752C165.373 89.7741 165.285 89.5813 165.174 89.401C164.978 89.0844 164.739 88.797 164.462 88.5477C163.811 88.0107 163.007 87.6925 162.165 87.6385C161.744 87.6065 161.321 87.6065 160.9 87.6385C160.708 87.6385 160.516 87.6385 160.324 87.6385C160.132 87.6385 159.923 87.6385 159.715 87.6385C159.627 87.6374 159.54 87.658 159.462 87.6983C159.384 87.7386 159.317 87.7975 159.267 87.8698C159.19 88.0842 159.168 88.3146 159.203 88.5397C159.203 88.7231 159.203 88.9065 159.203 89.098C159.203 89.2894 159.203 89.4808 159.203 89.6801V93.1653C159.203 93.7794 159.203 94.4014 159.203 95.0235C159.203 95.3265 159.203 95.6296 159.203 95.9327C159.179 96.1848 159.203 96.4393 159.275 96.6823C159.323 96.7655 159.393 96.8336 159.478 96.8787C159.563 96.9239 159.659 96.9442 159.755 96.9375H162.157C162.637 96.9426 163.114 96.8616 163.565 96.6983C164.027 96.5291 164.443 96.2562 164.782 95.9008C165.451 95.0127 165.798 93.9246 165.766 92.8144H165.782Z" fill="white"/>
<path d="M93.4502 5H84.5417C77.3436 5.01475 70.4446 7.87041 65.3548 12.9419C60.265 18.0134 57.399 24.8875 57.3842 32.0597V43.7034C57.4011 50.8742 60.268 57.7463 65.3576 62.8161C70.4472 67.8858 77.345 70.7404 84.5417 70.7551H93.4502C100.647 70.7404 107.545 67.8858 112.634 62.8161C117.724 57.7463 120.591 50.8742 120.608 43.7034V32.0597C120.593 24.8875 117.727 18.0134 112.637 12.9419C107.547 7.87041 100.648 5.01475 93.4502 5ZM117.734 43.7034C117.726 50.1174 115.164 56.2662 110.612 60.8008C106.059 65.3355 99.8874 67.8857 93.4502 67.892H84.5417C78.1045 67.8857 71.9326 65.3355 67.3801 60.8008C62.8275 56.2662 60.2661 50.1174 60.2576 43.7034V32.0597C60.2639 25.6443 62.8245 19.4935 67.3773 14.9571C71.9301 10.4207 78.1031 7.86941 84.5417 7.86308H93.4502C99.8888 7.86941 106.062 10.4207 110.615 14.9571C115.167 19.4935 117.728 25.6443 117.734 32.0597V43.7034Z" fill="white"/>
<path d="M102.191 38.041C102.221 38.0228 102.243 37.9934 102.252 37.9591C102.261 37.9248 102.256 37.8884 102.239 37.8576L100.918 35.6007C100.9 35.5722 100.871 35.552 100.838 35.5445C100.805 35.5371 100.771 35.5429 100.742 35.5608C98.7548 36.5852 96.5028 36.9856 94.2827 36.7092C94.2508 36.7055 94.2212 36.6906 94.1992 36.6673C94.1773 36.6439 94.1643 36.6136 94.1626 36.5816C94.1912 32.7646 94.4585 28.953 94.963 25.1692C94.9667 25.1395 94.9808 25.112 95.0027 25.0916C95.0247 25.0712 95.0531 25.0591 95.0831 25.0575L103.143 24.6348C103.16 24.6338 103.176 24.6295 103.192 24.6221C103.207 24.6148 103.22 24.6045 103.231 24.5919C103.243 24.5793 103.251 24.5646 103.257 24.5487C103.262 24.5328 103.264 24.516 103.263 24.4992L103.127 21.8834C103.123 21.8503 103.107 21.8197 103.082 21.7977C103.057 21.7756 103.025 21.7635 102.991 21.7638L92.4738 22.322C91.7227 26.9427 91.3267 31.6138 91.2892 36.2945C91.2893 36.3116 91.2858 36.3286 91.2788 36.3443C91.2718 36.3599 91.2615 36.3739 91.2486 36.3853C91.2357 36.3966 91.2205 36.4051 91.204 36.41C91.1875 36.415 91.1702 36.4164 91.1531 36.4141C90.0486 36.3184 88.92 36.2307 87.7434 36.2227C87.1751 36.2227 86.6148 36.2227 86.0546 36.2227C86.0206 36.2227 85.988 36.2093 85.964 36.1853C85.94 36.1614 85.9265 36.129 85.9265 36.0951C85.995 34.3646 85.9736 32.6316 85.8625 30.9033C85.7184 28.7101 85.3742 23.5662 81.5883 22.1306C79.7154 21.4208 77.4503 22.1306 75.8334 23.8692C73.1921 26.7722 73.1281 30.7518 73.1281 33.9737C73.1281 34.0076 73.1416 34.04 73.1656 34.0639C73.1896 34.0879 73.2222 34.1013 73.2562 34.1013H75.8815C75.9154 34.1013 75.948 34.0879 75.972 34.0639C75.996 34.04 76.0095 34.0076 76.0095 33.9737C76.0095 31.1027 76.0816 27.8807 77.9865 25.7992C78.6589 25.0735 79.7634 24.4992 80.5958 24.8103C82.4207 25.5041 82.853 28.5426 82.997 31.1027C83.1107 32.863 83.1267 34.6281 83.0451 36.3902C83.0425 36.4185 83.031 36.4452 83.0124 36.4667C82.9937 36.4882 82.9687 36.5033 82.941 36.5098C81.0951 36.7969 79.3322 37.474 77.7704 38.4956C75.1851 40.2103 72.3517 43.6556 72.2557 47.1885C72.2103 48.5395 72.5966 49.8699 73.359 50.9879C74.1215 52.1059 75.2205 52.9537 76.4978 53.4092C76.995 53.5657 77.5131 53.6463 78.0345 53.6484C80.1556 53.6484 82.1566 52.2687 83.3972 49.8522C85.0701 46.5824 85.4863 42.8102 85.7984 39.2214C85.8019 39.1908 85.8156 39.1623 85.8374 39.1406C85.8593 39.1189 85.8878 39.1052 85.9185 39.1017C86.5188 39.1017 87.1351 39.1017 87.7834 39.1017C88.944 39.1017 90.1046 39.2054 91.2332 39.3091C91.2643 39.313 91.2929 39.3282 91.3135 39.3517C91.3342 39.3752 91.3455 39.4054 91.3452 39.4367C91.4208 44.0716 91.7522 48.6989 92.3377 53.2975C92.3397 53.3143 92.345 53.3306 92.3533 53.3453C92.3617 53.3601 92.3729 53.373 92.3863 53.3834C92.3997 53.3938 92.415 53.4014 92.4314 53.4058C92.4478 53.4103 92.4649 53.4114 92.4818 53.4092L95.0831 53.0662C95.0999 53.0643 95.1163 53.059 95.1311 53.0507C95.1459 53.0424 95.1588 53.0312 95.1693 53.0178C95.1797 53.0045 95.1874 52.9892 95.1918 52.9728C95.1962 52.9565 95.1974 52.9395 95.1951 52.9227C94.608 48.5399 94.2633 44.1283 94.1626 39.7079C94.1626 39.6904 94.1661 39.6731 94.1731 39.6571C94.18 39.6411 94.1902 39.6266 94.2029 39.6147C94.2157 39.6027 94.2307 39.5935 94.2472 39.5876C94.2637 39.5817 94.2812 39.5792 94.2987 39.5803C97.0247 39.8677 99.7745 39.3314 102.191 38.041ZM80.828 48.5682C80.5878 49.0308 79.3072 51.3117 77.3622 50.6976C76.6839 50.4251 76.1059 49.9516 75.7065 49.3411C75.3071 48.7306 75.1056 48.0126 75.1291 47.2843C75.1931 44.8917 77.3542 42.236 79.3552 40.9041C80.3651 40.2309 81.4913 39.7496 82.6769 39.4846C82.6963 39.4808 82.7163 39.4816 82.7353 39.4868C82.7544 39.492 82.772 39.5016 82.7867 39.5147C82.8014 39.5278 82.8129 39.5442 82.8202 39.5625C82.8276 39.5808 82.8306 39.6005 82.829 39.6201C82.5728 42.8501 82.1726 45.9364 80.828 48.5682Z" fill="white"/>
<path d="M106.161 40.2821C105.636 39.8576 105.018 39.5638 104.357 39.4251C103.695 39.2864 103.01 39.3068 102.359 39.4845C103.063 40.2821 103.663 41.0796 104.352 41.8771C104.736 42.3077 104.408 42.6746 104.056 42.5789C102.991 42.2489 102.005 41.7062 101.158 40.9839C101.078 41.664 101.172 42.3532 101.431 42.9875C101.69 43.6219 102.105 44.1808 102.639 44.6126C103.532 45.2283 104.586 45.5719 105.672 45.6015C105.865 45.6015 106.057 45.6015 106.249 45.6015H107.545L107.633 44.2936C107.717 43.5569 107.627 42.8111 107.371 42.115C107.116 41.4188 106.701 40.7914 106.161 40.2821Z" fill="white"/>
<path d="M105.944 32.3069C104.656 32.6078 103.533 33.39 102.807 34.4921C102.79 34.5183 102.78 34.5487 102.778 34.5799C102.777 34.6112 102.784 34.6423 102.799 34.6699C102.813 34.6976 102.835 34.7208 102.862 34.7372C102.889 34.7537 102.92 34.7626 102.951 34.7633H105.352C105.419 34.763 105.485 34.7832 105.54 34.8211C105.595 34.859 105.637 34.9129 105.661 34.9754C105.684 35.038 105.688 35.1062 105.671 35.1709C105.655 35.2356 105.619 35.2938 105.568 35.3375L103.823 36.773C103.796 36.7945 103.776 36.8235 103.766 36.8564C103.755 36.8892 103.755 36.9244 103.764 36.9576C103.773 36.9908 103.792 37.0205 103.819 37.0429C103.845 37.0654 103.877 37.0797 103.911 37.084C104.328 37.1399 104.76 37.1957 105.208 37.2196C105.793 37.2576 106.38 37.2362 106.961 37.1558C107.678 37.0683 108.366 36.8224 108.975 36.4361C109.585 36.0498 110.1 35.5327 110.483 34.9228L111.067 33.9099C111.09 33.8711 111.098 33.8253 111.089 33.7812C111.08 33.7371 111.055 33.6977 111.019 33.6707L110.042 33.0167C109.448 32.6176 108.776 32.348 108.07 32.2257C107.363 32.1034 106.639 32.1311 105.944 32.3069Z" fill="white"/>
</g>
<defs>
<filter id="filter0_d" x="0" y="0" width="178" height="113" filterUnits="userSpaceOnUse" color-interpolation-filters="sRGB">
<feFlood flood-opacity="0" result="BackgroundImageFix"/>
<feColorMatrix in="SourceAlpha" type="matrix" values="0 0 0 0 0 0 0 0 0 0 0 0 0 0 0 0 0 0 127 0"/>
<feOffset dy="4"/>
<feGaussianBlur stdDeviation="4.5"/>
<feColorMatrix type="matrix" values="0 0 0 0 0 0 0 0 0 0 0 0 0 0 0 0 0 0 0.17 0"/>
<feBlend mode="normal" in2="BackgroundImageFix" result="effect1_dropShadow"/>
<feBlend mode="normal" in="SourceGraphic" in2="effect1_dropShadow" result="shape"/>
</filter>
<clipPath id="clip0">
<rect width="160" height="95" fill="white" transform="translate(9 5)"/>
</clipPath>
</defs>
</svg>
