<svg width="36" height="40" viewBox="0 0 36 40" fill="none" xmlns="http://www.w3.org/2000/svg">
<path d="M29.4503 5.5372C29.3547 5.91941 29.5838 6.30755 29.9646 6.40863C33.0217 7.1872 34.386 8.1872 34.386 8.8372C34.386 9.94149 31.2496 10.9301 30.1431 11.2229C30.2789 11.6801 30.4217 12.1372 30.5717 12.5872C32.5981 12.0158 35.8146 10.9479 35.8146 8.8372C35.8146 7.25863 33.9146 5.94434 30.3217 5.02291C30.1379 4.97521 29.9427 5.00264 29.7792 5.09914C29.6157 5.19564 29.4974 5.35326 29.4503 5.5372Z" fill="white"/>
<path d="M5.42877 12.5871C5.57877 12.1371 5.72163 11.68 5.85734 11.2228C5.61449 11.1585 5.38591 11.0942 5.16449 11.0228C2.54306 10.2371 1.61448 9.35139 1.61448 8.8371C1.61448 8.1871 2.97877 7.1871 6.03591 6.40853C6.41857 6.30991 6.64882 5.91975 6.5502 5.5371C6.45158 5.15445 6.06143 4.92419 5.67877 5.02281C2.08591 5.94424 0.185913 7.25853 0.185913 8.8371C0.185913 10.9507 3.41091 12.0192 5.42877 12.5871Z" fill="white"/>
<path d="M26.9931 25.7786C29.2145 24.7857 31.0645 23.8714 32.5002 23.05C32.359 22.2079 32.1657 21.3754 31.9217 20.5571C29.7645 22.1857 25.5217 24.2857 18.0002 24.2857C10.4788 24.2857 6.2431 22.1857 4.07882 20.5571C3.83476 21.3754 3.64154 22.2079 3.50024 23.05C4.9431 23.8714 6.78596 24.7857 9.00739 25.7786C12.4715 27.2664 15.5481 29.5292 18.0002 32.3928C20.4524 29.5292 23.529 27.2664 26.9931 25.7786Z" fill="#FFC702"/>
<path d="M7.25041 11.6714C8.49675 11.9909 9.76085 12.2366 11.0361 12.4071L8.95041 10.5286C8.74356 10.3625 8.64581 10.0954 8.69656 9.83501C8.7473 9.57462 8.93818 9.3638 9.19226 9.28752C9.44634 9.21124 9.72177 9.28205 9.90755 9.47143L13.479 12.6857C13.6291 12.8204 13.7149 13.0126 13.7149 13.2143C13.7149 13.416 13.6291 13.6082 13.479 13.7429C13.4311 13.8143 13.829 13.43 9.90755 16.9571C9.72177 17.1465 9.44634 17.2173 9.19226 17.1411C8.93818 17.0648 8.7473 16.8539 8.69656 16.5936C8.64581 16.3332 8.74356 16.0661 8.95041 15.9L11.2076 13.8643C9.72668 13.6847 8.25922 13.408 6.81469 13.0357C6.23041 14.8107 5.51684 16.6679 4.57898 19.1286C10.6847 24.1286 25.3211 24.1286 31.429 19.1286C30.6297 17.03 29.8576 15.0514 29.1861 13.0357C27.7416 13.408 26.2741 13.6847 24.7933 13.8643L27.0504 15.9C27.2573 16.0661 27.355 16.3332 27.3043 16.5936C27.2535 16.8539 27.0626 17.0648 26.8086 17.1411C26.5545 17.2173 26.279 17.1465 26.0933 16.9571C22.1647 13.4207 22.5697 13.8143 22.5218 13.7429C22.3729 13.6075 22.288 13.4156 22.288 13.2143C22.288 13.013 22.3729 12.8211 22.5218 12.6857L26.0933 9.47143C26.3881 9.2347 26.8163 9.26868 27.07 9.54895C27.3238 9.82922 27.3152 10.2587 27.0504 10.5286L24.9647 12.4071C26.2423 12.2365 27.5088 11.9909 28.7576 11.6714C28.7504 11.6571 28.7504 11.65 28.7433 11.6357C27.5336 7.78728 27.8508 3.621 29.629 0H6.37184C8.13083 3.63919 8.44479 7.80992 7.25041 11.6714ZM15.9433 13.2143C16.131 12.2135 16.9832 11.4738 18.0004 11.4286C19.2761 11.5397 20.2286 12.6509 20.1433 13.9286C20.2313 15.2072 19.2775 16.3201 18.0004 16.4286C16.679 16.4286 15.5404 14.985 15.9433 13.2143Z" fill="white"/>
<path d="M8.42154 27.0786C6.4144 26.1858 4.70964 25.3524 3.30726 24.5786C2.88113 29.9758 4.1684 35.3698 6.98583 39.9929H17.2858V33.8C14.9256 30.868 11.8818 28.56 8.42154 27.0786Z" fill="white"/>
<path d="M18.0003 14.9998C18.3948 14.9998 18.7146 14.5201 18.7146 13.9284C18.7146 13.3366 18.3948 12.8569 18.0003 12.8569C17.6058 12.8569 17.286 13.3366 17.286 13.9284C17.286 14.5201 17.6058 14.9998 18.0003 14.9998Z" fill="white"/>
<path d="M32.693 24.5786C31.293 25.35 29.5882 26.1834 27.5787 27.0786C24.1184 28.56 21.0746 30.868 18.7144 33.8V39.9929H29.0072C31.83 35.3718 33.12 29.9768 32.693 24.5786Z" fill="white"/>
</svg>
