<svg width="40" height="40" viewBox="0 0 40 40" fill="none" xmlns="http://www.w3.org/2000/svg">
<path d="M35.6547 14.54C34.8207 10.2513 33.6926 7.21798 32.2273 5.33337H33.3333C33.7013 5.33337 34 5.0354 34 4.66673V2.66672C34 1.19602 32.804 0 31.3333 0H30.6667H11.3333C9.86258 0 8.66664 1.19602 8.66664 2.66665V4.36595C6.75796 6.08665 5.34132 9.41728 4.34593 14.5393C3.1846 20.5107 2.66663 25.8307 2.66663 31.786V39.3334C2.66663 39.702 2.9653 40 3.33327 40H24.6667H36.6667C36.7494 40 36.8267 39.9807 36.9007 39.9527C36.924 39.944 36.944 39.932 36.966 39.9206C37.0147 39.8959 37.0594 39.8659 37.1007 39.8299C37.12 39.8133 37.1386 39.7973 37.156 39.7786C37.1967 39.7346 37.2286 39.6846 37.2567 39.6299C37.2647 39.6133 37.2767 39.5999 37.2833 39.5826C37.2847 39.5779 37.2887 39.5752 37.29 39.5705C37.3173 39.4985 37.3286 39.4239 37.33 39.3492C37.33 39.3439 37.3333 39.3392 37.3333 39.3332V31.7865C37.3333 25.8308 36.816 20.5114 35.6547 14.54ZM31.3333 1.33336C32.0686 1.33336 32.6667 1.93133 32.6667 2.66672V4.00001H31.3333V1.33336ZM16.0239 29.7274C14.4852 30.1427 12.7966 30.0174 11.3445 29.1501C10.0725 28.3901 9.17851 27.2047 8.82789 25.8108C8.06859 22.7961 10.0699 19.6794 13.2885 18.8634C13.5392 18.8 13.7919 18.7561 14.0438 18.7234C14.3438 16.4381 16.2999 14.666 18.6659 14.666C19.0338 14.666 19.3325 14.964 19.3325 15.3327C19.3325 16.9247 18.5299 18.3314 17.3092 19.174C17.6731 19.3327 18.0245 19.5227 18.3525 19.7533L18.6745 19.9973C19.5979 20.758 20.2239 21.7393 20.5046 22.854C21.3426 26.1808 18.956 28.9361 16.0239 29.7274ZM9.99992 4.00001V2.66665C9.99992 1.93133 10.5979 1.33328 11.3333 1.33328H30V4.00001H9.99992ZM25.3333 31.7867C25.3333 25.9193 25.844 20.6787 26.988 14.794C27.0914 14.2627 27.2 13.7553 27.3133 13.2633C27.3253 13.2126 27.336 13.1599 27.348 13.1099C27.456 12.6473 27.5693 12.206 27.6853 11.7786C27.7033 11.7113 27.722 11.6433 27.74 11.5773C27.8553 11.166 27.9747 10.7733 28.098 10.3966C28.12 10.3299 28.1414 10.2632 28.164 10.1979C28.2887 9.82791 28.4161 9.47455 28.5487 9.13924C28.5707 9.08322 28.5927 9.02994 28.6154 8.97525C28.7514 8.63924 28.8907 8.31861 29.0354 8.01861C29.0527 7.98197 29.0707 7.94861 29.0887 7.91259C29.2407 7.6033 29.3961 7.30994 29.5574 7.03994C29.5614 7.03259 29.5661 7.02595 29.5707 7.01861C29.71 6.78595 29.8554 6.57728 30.0014 6.37462V33.7001L25.3348 37.848V31.7867H25.3333ZM26.42 38.6667L30.6666 34.892L34.9133 38.6667H26.42ZM36 37.8494L31.3333 33.7014V6.37603C32.58 8.10267 33.5913 10.916 34.346 14.7947C35.49 20.6787 36 25.9194 36 31.7868V37.8494Z" fill="#B7B7B7"/>
<path d="M19.212 23.18C19.002 22.3453 18.5299 21.6053 17.8473 21.0433L17.5652 20.83C16.7905 20.2853 15.8479 19.9993 14.8705 19.9993C14.4545 19.9993 14.0332 20.0506 13.6152 20.1566C11.1086 20.7913 9.54052 23.1819 10.1199 25.4853C10.3839 26.5333 11.0612 27.4287 12.0272 28.0046C12.8273 28.4826 13.7759 28.7059 14.7319 28.6573C15.3593 28.6106 16.0566 27.9073 16.4873 26.8686C16.9886 25.6586 17.0926 24.0352 16.1946 23.1372C15.9339 22.8765 15.9339 22.4552 16.1946 22.1946C16.4546 21.934 16.8773 21.934 17.1373 22.1946C18.562 23.6193 18.3406 25.8772 17.7193 27.3786C17.6946 27.4373 17.6653 27.4886 17.64 27.5459C18.9533 26.482 19.6226 24.8107 19.212 23.18Z" fill="#B7B7B7"/>
<path d="M15.4187 18.5812C16.654 18.2946 17.6287 17.3205 17.914 16.0852C16.6787 16.3719 15.7047 17.3459 15.4187 18.5812Z" fill="#B7B7B7"/>
</svg>
