<svg width="40" height="40" viewBox="0 0 40 40" fill="none" xmlns="http://www.w3.org/2000/svg">
<g clip-path="url(#clip0)">
<path d="M1.21094 17.7344C1.21094 25.3734 6.04531 31.7844 12.7453 34.25L9.85781 40H27.7203L24.8328 34.25C31.543 31.7805 36.3672 25.3625 36.3672 17.7344H1.21094ZM22.3047 27.1094H19.9609V29.4531H17.6172V27.1094H15.2734V24.7656H17.6172V22.4219H19.9609V24.7656H22.3047V27.1094Z" fill="#B7B7B7"/>
<path d="M17.6172 8.35938C14.3863 8.35938 11.7578 10.9879 11.7578 14.2188V13.0469C11.7578 9.16984 8.60359 6.01562 4.72656 6.01562H2.38281V8.35938C2.38281 12.2364 5.53703 15.3906 9.41406 15.3906H12.9297C16.1605 15.3906 18.7891 12.7621 18.7891 9.53125V8.35938H17.6172Z" fill="#B7B7B7"/>
<path d="M38.789 4.6875C38.789 7.12734 36.9156 9.1375 34.5312 9.35547L31.0562 15.3906H20.5492L29.5258 5.69531C29.4515 5.36328 29.414 5.02656 29.414 4.6875C29.414 2.10312 31.5172 0 34.1015 0C36.6859 0 38.789 2.10312 38.789 4.6875Z" fill="#B7B7B7"/>
</g>
<defs>
<clipPath id="clip0">
<rect width="40" height="40" fill="white"/>
</clipPath>
</defs>
</svg>
