<svg width="40" height="40" viewBox="0 0 40 40" fill="none" xmlns="http://www.w3.org/2000/svg">
<g clip-path="url(#clip0)">
<path d="M23.125 13.75C23.4702 13.75 23.75 13.4702 23.75 13.125C23.75 12.7798 23.4702 12.5 23.125 12.5C22.7798 12.5 22.5 12.7798 22.5 13.125C22.5 13.4702 22.7798 13.75 23.125 13.75Z" fill="#B7B7B7"/>
<path d="M16.875 13.75C17.2202 13.75 17.5 13.4702 17.5 13.125C17.5 12.7798 17.2202 12.5 16.875 12.5C16.5298 12.5 16.25 12.7798 16.25 13.125C16.25 13.4702 16.5298 13.75 16.875 13.75Z" fill="#B7B7B7"/>
<path d="M25.684 27.883L28.0991 25.4679C27.9302 24.4435 27.4533 23.4949 26.7319 22.7484C26.2779 22.2748 25.7327 21.8979 25.1292 21.6404C24.5257 21.383 23.8763 21.2502 23.2202 21.2502C22.5641 21.2502 21.9147 21.383 21.3112 21.6404C20.7077 21.8979 20.1626 22.2748 19.7085 22.7484C19.2317 23.2405 18.8596 23.8241 18.6147 24.464C19.0794 24.3566 19.5548 24.3023 20.0317 24.3022C21.2165 24.3014 22.377 24.6376 23.3779 25.2717C24.3787 25.9057 25.1785 26.8114 25.684 27.883Z" fill="#B7B7B7"/>
<path d="M24.9218 37.202C24.5524 37.2026 24.1866 37.1303 23.8453 36.9892C23.5041 36.848 23.194 36.6409 22.933 36.3796C22.4064 35.8517 22.1106 35.1365 22.1106 34.3908C22.1106 33.6452 22.4064 32.9299 22.933 32.4021L30.1518 25.1833C30.2098 25.1253 30.2787 25.0792 30.3545 25.0478C30.4304 25.0164 30.5116 25.0002 30.5937 25.0002C30.6758 25.0002 30.7571 25.0164 30.8329 25.0478C30.9087 25.0792 30.9776 25.1253 31.0357 25.1833C31.9719 26.1217 32.4978 27.3932 32.4978 28.7189C32.4978 30.0445 31.9719 31.316 31.0357 32.2544L26.9107 36.3794C26.6497 36.6408 26.3396 36.848 25.9983 36.9891C25.657 37.1303 25.2911 37.2026 24.9218 37.202Z" fill="#B7B7B7"/>
<path d="M24.7282 28.8389C24.441 28.0488 23.9591 27.344 23.3271 26.7895C22.6952 26.2351 21.9335 25.8491 21.1128 25.6672C20.292 25.4853 19.4387 25.5134 18.6316 25.7489C17.8246 25.9844 17.09 26.4196 16.4959 27.0144L16.0102 27.5001H16.5625C17.64 27.5001 18.6733 27.9281 19.4352 28.69C20.197 29.4518 20.625 30.4851 20.625 31.5626C20.625 32.64 20.197 33.6733 19.4352 34.4352C18.6733 35.1971 17.64 35.6251 16.5625 35.6251H10.6729C10.7979 36.548 11.1782 37.4176 11.771 38.1359C12.3637 38.8543 13.1453 39.3928 14.0276 39.6908C14.91 39.9889 15.858 40.0345 16.7649 39.8227C17.6719 39.6108 18.5016 39.1499 19.1606 38.4918L21.3417 36.3107C20.9304 35.5416 20.7771 34.6606 20.9044 33.7978C21.0317 32.9349 21.4329 32.1358 22.0489 31.5182L24.7282 28.8389Z" fill="#B7B7B7"/>
<path d="M16.5625 28.7503H12.327L14.2927 25.3103C14.3335 25.2391 14.3599 25.1604 14.3704 25.079C14.3808 24.9975 14.3751 24.9147 14.3535 24.8355C14.332 24.7562 14.295 24.682 14.2447 24.617C14.1944 24.552 14.1318 24.4976 14.0605 24.4569C13.9892 24.4161 13.9105 24.3898 13.829 24.3795C13.7475 24.3691 13.6648 24.375 13.5856 24.3967C13.5063 24.4183 13.4321 24.4554 13.3672 24.5058C13.3023 24.5561 13.248 24.6188 13.2073 24.6902L10.8873 28.7503H8.125C7.95924 28.7503 7.80027 28.8161 7.68306 28.9333C7.56585 29.0505 7.5 29.2095 7.5 29.3753V31.2503C7.50093 32.0788 7.83047 32.8731 8.41632 33.459C9.00217 34.0448 9.79648 34.3743 10.625 34.3753H16.5625C17.3084 34.3753 18.0238 34.079 18.5512 33.5515C19.0787 33.0241 19.375 32.3087 19.375 31.5628C19.375 30.8168 19.0787 30.1015 18.5512 29.574C18.0238 29.0466 17.3084 28.7503 16.5625 28.7503Z" fill="#B7B7B7"/>
<path d="M19.9416 0.000111248C14.4236 0.0319862 10 4.59199 10 10.1101V23.5194L11.8613 19.257C11.8655 19.2471 11.8702 19.2373 11.875 19.2276C12.0635 18.8496 12.3269 18.5139 12.6492 18.2409C12.9716 17.968 13.3461 17.7635 13.75 17.64V18.1251C13.75 21.4705 16.3235 24.0825 16.433 24.1921C16.5504 24.3082 16.709 24.3732 16.8741 24.3728C17.0392 24.3724 17.1974 24.3067 17.3143 24.1901C17.4311 24.0734 17.497 23.9153 17.4976 23.7502C17.4983 23.585 17.4335 23.4264 17.3176 23.3089C17.2941 23.2854 15 20.9449 15 18.1251V17.5001H25.3299C25.9107 17.4982 26.4804 17.659 26.9744 17.9643C27.4684 18.2696 27.867 18.7073 28.125 19.2276L30 22.9776V10.0001C29.9985 8.68239 29.737 7.37791 29.2302 6.16151C28.7235 4.9451 27.9817 3.8407 27.0472 2.91164C26.1127 1.98258 25.004 1.24715 23.7847 0.747519C22.5653 0.247891 21.2594 -0.00610064 19.9416 0.000111248ZM26.25 13.7501C26.25 14.4132 25.9866 15.049 25.5178 15.5179C25.0489 15.9867 24.413 16.2501 23.75 16.2501H16.25C15.587 16.2501 14.9511 15.9867 14.4822 15.5179C14.0134 15.049 13.75 14.4132 13.75 13.7501V10.0632C13.7506 9.76942 13.8199 9.47982 13.9526 9.21764C14.0852 8.95546 14.2774 8.728 14.5138 8.55347C15.045 8.15886 15.5782 7.55449 15.9512 7.0791C16.1451 6.83169 16.2503 6.52642 16.25 6.21214V3.77152C16.2479 3.61022 16.3069 3.4541 16.4151 3.33447C16.5233 3.21483 16.6727 3.14052 16.8334 3.12644C16.9188 3.12075 17.0045 3.13265 17.0851 3.16142C17.1657 3.19019 17.2395 3.2352 17.302 3.29367C17.3645 3.35215 17.4143 3.42283 17.4484 3.50134C17.4824 3.57986 17.5 3.66453 17.5 3.75011V5.75792C17.5001 6.01127 17.5686 6.25988 17.6983 6.47754C17.8279 6.6952 18.0139 6.87385 18.2366 6.99464C19.5239 7.69456 22.0565 8.75011 25.6245 8.75011C25.7066 8.75005 25.788 8.76617 25.8639 8.79755C25.9397 8.82893 26.0087 8.87496 26.0668 8.933C26.1249 8.99105 26.1709 9.05997 26.2024 9.13583C26.2338 9.21169 26.25 9.293 26.25 9.37511V13.7501Z" fill="#B7B7B7"/>
</g>
<defs>
<clipPath id="clip0">
<rect width="40" height="40" fill="white"/>
</clipPath>
</defs>
</svg>
