<svg width="40" height="40" viewBox="0 0 40 40" fill="none" xmlns="http://www.w3.org/2000/svg">
<path d="M20.625 31.1556V30.86C20.625 29.6669 20.16 28.5444 19.3156 27.6994L18.0931 26.4775C17.5437 25.9275 16.8131 25.625 16.0356 25.625C13.7413 25.625 11.875 23.7587 11.875 21.4644C11.875 20.6875 11.5725 19.9562 11.0225 19.4062L9.86188 18.2456C8.97813 17.3613 7.80312 16.875 6.55312 16.875C3.97375 16.875 1.875 18.9731 1.875 21.5531V21.9175C1.875 22.2581 1.9125 22.5994 1.98625 22.9325C3.375 29.1825 8.32062 34.0731 14.5862 35.3925L15.235 35.5294C15.5369 35.5925 15.8463 35.625 16.1556 35.625C18.62 35.625 20.625 33.62 20.625 31.1556ZM5.05 27.2344C4.78562 26.8006 4.54062 26.3488 4.3225 25.8931L5.45 25.3538C5.65 25.7713 5.87438 26.185 6.1175 26.5837L5.05 27.2344ZM4.375 21.5531V21.9175C4.375 22.0756 4.3925 22.235 4.42688 22.3906C4.5625 22.9994 4.74063 23.6038 4.95688 24.1881L3.78437 24.6213C3.54937 23.985 3.35438 23.3256 3.20688 22.6612C3.1525 22.4169 3.125 22.1669 3.125 21.9175V21.5531C3.125 19.7875 4.44875 18.3206 6.20375 18.1425L6.33 19.3862C5.21563 19.4994 4.375 20.4313 4.375 21.5531ZM14.2319 27.8775C12.0394 27.26 10.28 25.5175 9.64125 23.3306L10.8413 22.98C11.3606 24.7569 12.7894 26.1719 14.5706 26.6738L14.2319 27.8775Z" fill="#B7B7B7"/>
<path d="M31.2369 13.125C29.3975 13.125 27.6675 13.8413 26.3663 15.1425L25.6157 15.8931C24.8157 16.6931 24.375 17.7569 24.375 18.8888C24.375 21.9137 21.9138 24.375 18.8888 24.375C18.395 24.375 17.9113 24.4631 17.455 24.6275C18.02 24.8325 18.54 25.1563 18.9775 25.5938L20.2 26.8156C21.2807 27.8962 21.875 29.3325 21.875 30.86V31.1556C21.875 34.3094 19.3094 36.875 16.1557 36.875C16.0475 36.875 15.94 36.8644 15.8319 36.8581C16.9413 37.6706 18.2794 38.125 19.7013 38.125C20.2619 38.125 20.82 38.0538 21.3607 37.9119L22.025 37.7388C29.715 35.7325 35.7913 29.7238 37.8825 22.0563C38.0438 21.4656 38.125 20.8556 38.125 20.2444V20.0131C38.125 16.2144 35.035 13.125 31.2369 13.125ZM21.6207 25.0456C23.1482 24.365 24.365 23.1487 25.0457 21.6206L26.1875 22.1294C25.3807 23.9394 23.9394 25.3806 22.1288 26.1869L21.6207 25.0456ZM21.7094 36.5294L21.4082 36.6081L21.0925 35.3981L21.3938 35.3194C24.4763 34.5156 27.3563 32.9481 29.7219 30.7881L30.565 31.7113C28.0494 34.0081 24.9875 35.6744 21.7094 36.5294ZM31.24 31.0675L30.3569 30.1825C30.7457 29.795 31.1219 29.3875 31.475 28.9713L32.4282 29.7794C32.0525 30.2213 31.6532 30.6556 31.24 31.0675Z" fill="#B7B7B7"/>
<path d="M4.3225 16.0644C5.01187 15.7831 5.76437 15.625 6.55312 15.625C8.13687 15.625 9.62562 16.2413 10.745 17.3612L11.9062 18.5219C12.6919 19.3088 13.125 20.3531 13.125 21.4637C13.125 22.8787 14.1406 24.0581 15.4806 24.3181C16.4487 23.55 17.645 23.125 18.8888 23.125C21.2244 23.125 23.125 21.2244 23.125 18.8888C23.125 17.4231 23.6956 16.0456 24.7319 15.0094L24.7412 15L24.1069 14.3656C23.3069 13.5656 22.2431 13.125 21.1112 13.125C18.0863 13.125 15.625 10.6637 15.625 7.63875C15.625 6.50688 15.1844 5.44313 14.3844 4.64313L13.6337 3.8925C12.3325 2.59125 10.6025 1.875 8.76312 1.875C4.965 1.875 1.875 4.96438 1.875 8.76312V8.99437C1.875 9.60625 1.95687 10.2156 2.11812 10.8056C2.62062 12.65 3.36875 14.4125 4.3225 16.0644ZM14.9544 10.3706C15.635 11.8988 16.8519 13.1156 18.3794 13.7956L17.8713 14.9369C16.0612 14.1306 14.6194 12.6894 13.8125 10.8794L14.9544 10.3706ZM3.85188 12.1369C3.69125 11.6969 3.54438 11.2469 3.415 10.7987L4.61563 10.4506C4.7375 10.8719 4.87562 11.2956 5.02625 11.7087L3.85188 12.1369ZM3.125 8.76312C3.125 5.6625 5.6475 3.13312 8.74875 3.125L8.75187 4.375C6.33875 4.38125 4.375 6.34937 4.375 8.76312V8.99437C4.375 9.10562 4.37937 9.21625 4.38812 9.32688L3.14188 9.42312C3.13063 9.28125 3.125 9.13687 3.125 8.99437V8.76312Z" fill="#B7B7B7"/>
</svg>
