<svg width="40" height="40" viewBox="0 0 40 40" fill="none" xmlns="http://www.w3.org/2000/svg">
<path d="M3.74211 17.0236C5.62492 20.508 9.97649 21.8048 13.4609 19.922C14.0234 19.6173 14.5468 19.2345 15.0077 18.7892C14.4921 18.4689 13.9999 18.1095 13.5546 17.6955C13.3593 17.5236 13.3437 17.2267 13.5155 17.0314C13.6874 16.8361 13.9843 16.8205 14.1796 16.9923L14.1874 17.0002C16.0234 18.672 18.4843 19.4767 20.9531 19.2189H20.9843C22.7968 19.0236 24.4921 18.258 25.8437 17.0392C26.039 16.8673 26.3359 16.883 26.5077 17.0783C26.6796 17.2736 26.664 17.5705 26.4687 17.7423C26.0155 18.1486 25.5312 18.508 25.0077 18.8283C27.8906 21.547 32.4296 21.422 35.1484 18.5392C37.8671 15.6564 37.7421 11.1173 34.8593 8.39859C33.2265 6.85952 30.9765 6.17202 28.7656 6.53921C29.3906 7.88296 29.6952 9.35953 29.6562 10.8439C29.6484 11.1017 29.4452 11.297 29.1874 11.297H29.1718C28.914 11.2892 28.7109 11.0783 28.7187 10.8127C28.8671 6.02358 25.0937 2.01577 20.2968 1.87514C15.4999 1.73452 11.4999 5.50796 11.3515 10.3048V10.3517C11.3437 10.6095 11.1406 10.8048 10.8827 10.8048H10.8671C10.6093 10.797 10.4062 10.5861 10.414 10.3205C10.4452 9.01578 10.7499 7.73452 11.2968 6.54702C7.39055 5.85952 3.6718 8.4689 2.9843 12.3752C2.83586 13.2345 2.84367 14.1095 2.99992 14.9611C3.14055 15.6877 3.39055 16.383 3.74211 17.0236Z" fill="#B7B7B7"/>
<path d="M4.7813 19.7815C3.53911 18.719 2.64067 17.3049 2.2188 15.7268C0.875046 17.3206 1.07817 19.7112 2.67192 21.0549C3.99223 22.1643 5.89067 22.2424 7.29692 21.2424C6.38286 20.9143 5.5313 20.4143 4.7813 19.7815Z" fill="#B7B7B7"/>
<path d="M37.7812 15.7268C37.0937 18.2893 35.1953 20.344 32.7031 21.2424C34.4062 22.4534 36.7656 22.0549 37.9765 20.3518C38.9687 18.9534 38.8906 17.0471 37.7812 15.7268Z" fill="#B7B7B7"/>
<path d="M30.1484 21.719L28.2422 27.219L32.0234 21.9065C31.8828 21.7971 31.7422 21.6721 31.6094 21.5471C31.125 21.6487 30.6406 21.7112 30.1484 21.719Z" fill="#B7B7B7"/>
<path d="M8.39075 21.5549C8.00793 21.9221 7.57043 22.2268 7.08606 22.4456L11.7267 27.6487C10.8595 25.7346 9.87512 23.7034 8.77356 21.6252C8.64075 21.6018 8.51575 21.5784 8.39075 21.5549Z" fill="#B7B7B7"/>
<path d="M27.7734 21.4299C27.3203 22.7971 25.8594 27.1487 25.2734 28.3909C24.8906 29.1956 23.9219 29.5393 23.1172 29.1565C22.4688 28.8518 22.1016 28.1565 22.2109 27.4456L23.4219 19.6018C22.7812 19.844 22.1094 20.0159 21.4297 20.1096L19.6328 30.1799V30.1956C19.4688 30.9534 18.7188 31.4377 17.9609 31.2659C17.5234 31.1721 17.1563 30.8752 16.9766 30.4612C16.2422 28.7971 13.7969 23.3831 12.4063 21.3674C11.6406 21.6018 10.8516 21.719 10.0547 21.719C10 21.719 9.94531 21.719 9.89062 21.719L13.8047 30.0549C14.8516 32.5627 15.6406 34.7424 16.1406 36.3752C16.4609 37.4221 17.4219 38.1331 18.5156 38.1252H21.7031C22.7656 38.1252 23.7031 37.4534 24.0547 36.4534L26.2891 30.0081L29.1719 21.6877C28.6953 21.6409 28.2344 21.5549 27.7734 21.4299Z" fill="#B7B7B7"/>
</svg>
