<svg width="40" height="40" viewBox="0 0 40 40" fill="none" xmlns="http://www.w3.org/2000/svg">
<g clip-path="url(#clip0)">
<path d="M39.9435 15.4122C39.8282 15.0575 39.5487 14.7803 39.1929 14.6682L27.8463 11.0927L20.9394 1.40627C20.7229 1.10268 20.373 0.922363 20 0.922363C19.627 0.922363 19.2771 1.10268 19.0605 1.40627L12.1536 11.0927L0.807103 14.6683C0.451321 14.7804 0.17179 15.0576 0.0564777 15.4123C-0.0587567 15.7669 0.00452455 16.1555 0.2264 16.4553L7.30429 26.0174L7.19859 37.9136C7.19531 38.2865 7.37242 38.6381 7.67421 38.8573C7.97601 39.0766 8.36515 39.1364 8.71874 39.018L20 35.2413L31.2813 39.0179C31.4009 39.058 31.5245 39.0776 31.6476 39.0776C31.8882 39.0776 32.1262 39.0023 32.3259 38.8572C32.6276 38.638 32.8048 38.2864 32.8015 37.9135L32.6958 26.0173L39.7737 16.4552C39.9955 16.1555 40.0587 15.7669 39.9435 15.4122ZM30.6111 24.9548C30.462 25.1563 30.3825 25.4009 30.3847 25.6515L30.4794 36.3159L20.3663 32.9303C20.2475 32.8905 20.1238 32.8706 20 32.8706C19.8762 32.8706 19.7525 32.8906 19.6337 32.9303L9.52062 36.3159L9.61539 25.6515C9.61765 25.4009 9.53812 25.1563 9.38898 24.9548L3.04398 16.3829L13.2156 13.1775C13.4547 13.1022 13.6628 12.951 13.8083 12.7469L20 4.06361L26.1917 12.747C26.3373 12.951 26.5452 13.1022 26.7844 13.1776L36.956 16.383L30.6111 24.9548Z" fill="#B7B7B7"/>
<path d="M20 17.3076C19.3628 17.3076 18.8462 17.8243 18.8462 18.4614V24.6153C18.8462 25.2525 19.3628 25.7691 20 25.7691C20.6373 25.7691 21.1538 25.2525 21.1538 24.6153V18.4614C21.1538 17.8242 20.6373 17.3076 20 17.3076Z" fill="#B7B7B7"/>
<path d="M26.9232 17.3076H23.8462C23.2089 17.3076 22.6924 17.8243 22.6924 18.4614V24.6153C22.6924 25.2525 23.209 25.7691 23.8462 25.7691C24.4834 25.7691 25.0001 25.2525 25.0001 24.6153V22.6922H26.9232C28.4077 22.6922 29.6155 21.4845 29.6155 19.9999C29.6155 18.5153 28.4078 17.3076 26.9232 17.3076ZM26.9232 20.3845H25.0001V19.6153H26.9232C27.1353 19.6153 27.3078 19.7878 27.3078 19.9999C27.3079 20.212 27.1353 20.3845 26.9232 20.3845Z" fill="#B7B7B7"/>
<path d="M16.5591 17.3812C15.9623 17.1576 15.2973 17.4597 15.0735 18.0564L13.8462 21.3292L12.6188 18.0564C12.3951 17.4596 11.7301 17.1574 11.1333 17.3812C10.5366 17.6049 10.2343 18.27 10.4581 18.8667L12.7657 25.0206C12.9346 25.4709 13.3652 25.7692 13.8461 25.7692C14.327 25.7692 14.7577 25.4709 14.9265 25.0206L17.2342 18.8667C17.4581 18.27 17.1558 17.6049 16.5591 17.3812Z" fill="#B7B7B7"/>
</g>
<defs>
<clipPath id="clip0">
<rect width="40" height="40" fill="white"/>
</clipPath>
</defs>
</svg>
