<svg width="60" height="60" viewBox="0 0 60 60" fill="none" xmlns="http://www.w3.org/2000/svg">
<path d="M1.87512 15.9377L30.0001 30.0002L58.1251 15.9377V45.9377L30.0001 60L1.87512 45.9375V15.9377Z" fill="#DB5449"/>
<path d="M1.87512 18.7498V27.5153L29.9063 41.2497L58.125 27.4684V18.7498L30.0001 32.5311L1.87512 18.7498Z" fill="#C54B42"/>
<path d="M30.0001 60V30.0002L3.75014 16.8752H1.87512V45.9377L30.0001 60Z" fill="#D05045"/>
<path d="M1.87512 18.7498V27.5153L29.9063 41.2497L30.0001 41.2028V32.4841V32.531L1.87512 18.7498Z" fill="#BB483E"/>
<path d="M0 14.9541L30 0.000976562L60 14.9541V16.9229L30 31.8758L0 16.9697V14.9541Z" fill="#EB6258"/>
<path d="M47.2032 4.73442C46.2188 2.95319 44.1094 1.875 41.625 1.875C35.9532 1.875 31.9688 7.17191 30 10.5469C28.0312 7.17191 24.0001 1.92189 18.375 1.92189C14.7657 1.92189 12.1875 4.12504 12.1875 7.12502C12.1875 12.4687 18.0469 15.9375 29.8125 15.9375C41.578 15.9375 47.8124 11.4844 47.8124 7.17191C47.8125 6.32819 47.6251 5.48447 47.2032 4.73442ZM19.5939 10.5001C18.2814 9.60953 17.8127 8.62513 17.8127 7.96886C17.8127 7.17203 18.5627 6.56266 19.6408 6.56266C22.1721 6.56266 24.1876 9.89077 25.3126 12.1877C22.3595 11.9532 20.6251 11.1563 19.5939 10.5001ZM40.4063 10.5001C39.375 11.1564 37.6406 11.9532 34.6876 12.1876C35.7656 9.89077 37.7813 6.56254 40.3594 6.56254C41.4375 6.56254 42.1875 7.17191 42.1875 7.96874C42.1876 8.62513 41.7188 9.60941 40.4063 10.5001Z" fill="#EFEFEF"/>
<path d="M0 15L30 29.6719L60 15V24.7031L29.9062 39.375L0 24.7031V15Z" fill="#E2574C"/>
<path d="M41.2501 25.4533V24.3752L30.0002 18.2815L18.7502 24.3752V25.4533L11.2502 22.1721V20.6721L29.6251 10.969L30.0002 11.1564L30.3752 10.969L48.7501 20.6252V22.1252L41.2501 25.4533Z" fill="#EFEFEF"/>
<path d="M41.25 24.375V54.3281L48.7499 50.5781V20.625L41.25 24.375Z" fill="#DCDCDC"/>
<path d="M11.25 50.6249L18.7499 54.3749V24.4219L11.25 20.625C11.25 20.6249 11.25 50.6249 11.25 50.6249Z" fill="#D1D1D1"/>
</svg>
